0
SECTION
2
HEADER
9
$INSUNITS
70
4
9
$ACADVER
1
AC1014
9
$HANDSEED
5
FFFF
0
ENDSEC
0
SECTION
2
TABLES
0
TABLE
2
VPORT
5
8
100
AcDbSymbolTable
0
ENDTAB
0
TABLE
2
LTYPE
5
5
100
AcDbSymbolTable
0
LTYPE
5
14
100
AcDbSymbolTableRecord
100
AcDbLinetypeTableRecord
2
BYBLOCK
70
0
0
LTYPE
5
15
100
AcDbSymbolTableRecord
100
AcDbLinetypeTableRecord
2
BYLAYER
70
0
0
ENDTAB
0
TABLE
2
LAYER
5
2
100
AcDbSymbolTable
70
2
0
LAYER
5
50
100
AcDbSymbolTableRecord
100
AcDbLayerTableRecord
2
0
70
0
6
CONTINUOUS
0
ENDTAB
0
TABLE
2
STYLE
5
3
100
AcDbSymbolTable
70
1
0
STYLE
5
11
100
AcDbSymbolTableRecord
100
AcDbTextStyleTableRecord
2
STANDARD
70
0
0
ENDTAB
0
TABLE
2
VIEW
5
6
100
AcDbSymbolTable
70
0
0
ENDTAB
0
TABLE
2
UCS
5
7
100
AcDbSymbolTable
70
0
0
ENDTAB
0
TABLE
2
APPID
5
9
100
AcDbSymbolTable
70
2
0
APPID
5
12
100
AcDbSymbolTableRecord
100
AcDbRegAppTableRecord
2
ACAD
70
0
0
ENDTAB
0
TABLE
2
DIMSTYLE
5
A
100
AcDbSymbolTable
70
1
0
ENDTAB
0
TABLE
2
BLOCK_RECORD
5
1
100
AcDbSymbolTable
70
1
0
BLOCK_RECORD
5
1F
100
AcDbSymbolTableRecord
100
AcDbBlockTableRecord
2
*MODEL_SPACE
0
BLOCK_RECORD
5
1B
100
AcDbSymbolTableRecord
100
AcDbBlockTableRecord
2
*PAPER_SPACE
0
ENDTAB
0
ENDSEC
0
SECTION
2
BLOCKS
0
BLOCK
5
20
100
AcDbEntity
100
AcDbBlockBegin
2
*MODEL_SPACE
0
ENDBLK
5
21
100
AcDbEntity
100
AcDbBlockEnd
0
BLOCK
5
1C
100
AcDbEntity
100
AcDbBlockBegin
2
*PAPER_SPACE
0
ENDBLK
5
1D
100
AcDbEntity
100
AcDbBlockEnd
0
ENDSEC
0
SECTION
2
ENTITIES
0
CIRCLE
5
100
100
AcDbEntity
8
0
100
AcDbCircle
10
120.14999833333337
20
4.5963203398481802
30
0
40
1.2500000000000069
210
0
220
0
230
1
0
LWPOLYLINE
5
101
100
AcDbEntity
8
0
100
AcDbPolyline
90
32
70
1
43
0.0
10
363.71789321340759
20
4.5963203394091448
10
244.62842879141289
20
4.5963203396238068
42
0.31783724519580048
10
243.68561974982958
20
3.9296536729588278
42
-0.70710678118654524
10
239.91438358350138
20
3.9296536729656433
42
0.31783724519577006
10
238.97157454192052
20
4.5963203396340022
10
122.97842545807956
20
4.5963203398430821
42
0.31783724519578849
10
122.0356164164963
20
3.929653673178116
42
-0.70710678118654635
10
118.26438025016806
20
3.9296536731849119
42
0.31783724519578654
10
117.32157120858719
20
4.5963203398532784
10
-1.7678932128268343
20
4.5963203400679395
42
0.31783724519577838
10
-2.7107022544100845
20
3.929653673402973
42
-0.22654091966204162
10
-3.9296536709173111
20
2.7107022569050332
42
0.31783724519578072
10
-4.5963203375894608
20
1.7678932153268434
10
-4.5963203382748379
20
-116.0678932135451
42
0.31783724519577206
10
-3.9296536716136545
20
-117.01070225513105
42
-0.22654091965945755
10
-2.7107022551271651
20
-118.22965367162465
42
0.31783724519577738
10
-1.7678932135451042
20
-118.8963203382913
10
117.32157120858722
20
-118.8963203382913
42
0.31783724519577994
10
118.26438025016927
20
-118.22965367162466
42
-0.70710678118654857
10
122.03561641649749
20
-118.22965367162465
42
0.31783724519579132
10
122.97842545807956
20
-118.8963203382913
10
238.97157454192052
20
-118.8963203382913
42
0.31783724519577289
10
239.91438358350263
20
-118.22965367162465
42
-0.70710678118654191
10
243.68561974983078
20
-118.22965367162465
42
0.31783724519577289
10
244.62842879141289
20
-118.8963203382913
10
363.71789321354504
20
-118.8963203382913
42
0.31783724519573492
10
364.66070225512715
20
-118.22965367162466
42
-0.22654091966069806
10
365.87965367162258
20
-117.01070225512788
42
0.31783724519574896
10
366.54632033828818
20
-116.06789321354509
10
366.54632033815693
20
1.7678932146578319
42
0.31783724519569428
10
365.87965367148922
20
2.7107022562391525
42
-0.22654091966175402
10
364.66070225498845
20
3.9296536727407769
42
0.31783724519582712
0
LWPOLYLINE
5
102
100
AcDbEntity
8
0
100
AcDbPolyline
90
8
70
1
43
0.0
10
364.42500000000001
20
-126.77500000000008
10
-2.475000000000001
20
-126.77500000000001
42
-0.41421356237309531
10
-12.474999999999991
20
-116.77500000000002
10
-12.475000000000001
20
2.4750000000000014
42
-0.41421356237309537
10
-2.4750000000000227
20
12.475000000000001
10
364.42500000000001
20
12.475000000000049
42
-0.41421356237309215
10
374.42500000000001
20
2.475000000000005
10
374.42500000000001
20
-116.77500000000001
42
-0.41421356237309293
0
CIRCLE
5
103
100
AcDbEntity
8
0
100
AcDbCircle
10
241.8000016666667
20
4.5963203396289041
30
0
40
1.2499999999999891
210
0
220
0
230
1
0
CIRCLE
5
104
100
AcDbEntity
8
0
100
AcDbCircle
10
120.14999833333337
20
-118.8963203382913
30
0
40
1.2500000000000056
210
0
220
0
230
1
0
CIRCLE
5
105
100
AcDbEntity
8
0
100
AcDbCircle
10
241.8000016666667
20
-118.8963203382913
30
0
40
1.2500000000000056
210
0
220
0
230
1
0
CIRCLE
5
106
100
AcDbEntity
8
0
100
AcDbCircle
10
366.54632033829131
20
-118.8963203382913
30
0
40
1.2500000000000135
210
0
220
0
230
1
0
CIRCLE
5
107
100
AcDbEntity
8
0
100
AcDbCircle
10
-4.5963203382912896
20
-118.8963203382913
30
0
40
1.250000000000002
210
0
220
0
230
1
0
CIRCLE
5
108
100
AcDbEntity
8
0
100
AcDbCircle
10
366.54632033815381
20
4.5963203394040466
30
0
40
1.2499999999999909
210
0
220
0
230
1
0
CIRCLE
5
109
100
AcDbEntity
8
0
100
AcDbCircle
10
-4.5963203375730091
20
4.5963203400730377
30
0
40
1.25
210
0
220
0
230
1
0
ENDSEC
0
SECTION
2
OBJECTS
0
DICTIONARY
5
C
100
AcDbDictionary
3
ACAD_GROUP
350
D
3
ACAD_MLINESTYLE
350
17
0
DICTIONARY
5
D
100
AcDbDictionary
0
DICTIONARY
5
1A
330
C
100
AcDbDictionary
0
DICTIONARY
5
17
100
AcDbDictionary
0
ENDSEC
0
EOF
