0
SECTION
2
HEADER
9
$INSUNITS
70
4
9
$ACADVER
1
AC1014
9
$HANDSEED
5
FFFF
0
ENDSEC
0
SECTION
2
TABLES
0
TABLE
2
VPORT
5
8
100
AcDbSymbolTable
0
ENDTAB
0
TABLE
2
LTYPE
5
5
100
AcDbSymbolTable
0
LTYPE
5
14
100
AcDbSymbolTableRecord
100
AcDbLinetypeTableRecord
2
BYBLOCK
70
0
0
LTYPE
5
15
100
AcDbSymbolTableRecord
100
AcDbLinetypeTableRecord
2
BYLAYER
70
0
0
ENDTAB
0
TABLE
2
LAYER
5
2
100
AcDbSymbolTable
70
2
0
LAYER
5
50
100
AcDbSymbolTableRecord
100
AcDbLayerTableRecord
2
0
70
0
6
CONTINUOUS
0
ENDTAB
0
TABLE
2
STYLE
5
3
100
AcDbSymbolTable
70
1
0
STYLE
5
11
100
AcDbSymbolTableRecord
100
AcDbTextStyleTableRecord
2
STANDARD
70
0
0
ENDTAB
0
TABLE
2
VIEW
5
6
100
AcDbSymbolTable
70
0
0
ENDTAB
0
TABLE
2
UCS
5
7
100
AcDbSymbolTable
70
0
0
ENDTAB
0
TABLE
2
APPID
5
9
100
AcDbSymbolTable
70
2
0
APPID
5
12
100
AcDbSymbolTableRecord
100
AcDbRegAppTableRecord
2
ACAD
70
0
0
ENDTAB
0
TABLE
2
DIMSTYLE
5
A
100
AcDbSymbolTable
70
1
0
ENDTAB
0
TABLE
2
BLOCK_RECORD
5
1
100
AcDbSymbolTable
70
1
0
BLOCK_RECORD
5
1F
100
AcDbSymbolTableRecord
100
AcDbBlockTableRecord
2
*MODEL_SPACE
0
BLOCK_RECORD
5
1B
100
AcDbSymbolTableRecord
100
AcDbBlockTableRecord
2
*PAPER_SPACE
0
ENDTAB
0
ENDSEC
0
SECTION
2
BLOCKS
0
BLOCK
5
20
100
AcDbEntity
100
AcDbBlockBegin
2
*MODEL_SPACE
0
ENDBLK
5
21
100
AcDbEntity
100
AcDbBlockEnd
0
BLOCK
5
1C
100
AcDbEntity
100
AcDbBlockBegin
2
*PAPER_SPACE
0
ENDBLK
5
1D
100
AcDbEntity
100
AcDbBlockEnd
0
ENDSEC
0
SECTION
2
ENTITIES
0
LWPOLYLINE
5
100
100
AcDbEntity
8
0
100
AcDbPolyline
90
26
70
1
43
0.0
10
361.4249999999999
20
0.47500000000000436
42
-0.41421356237311296
10
362.42500000000001
20
-0.52500000000000213
10
362.42500000000001
20
-113.77499999999998
42
-0.41421356237312101
10
361.4249999999999
20
-114.77499999999999
10
0.52500000000000013
20
-114.77500000000001
42
-0.41421356237310719
10
-0.47499999999999998
20
-113.77499999999998
10
-0.47500000000000009
20
-0.52500000000000002
42
-0.4142135623730952
10
0.52499999999999991
20
0.4750000000000002
10
8.5250000000000004
20
0.47499999999999792
42
0.41421356237309387
10
9.5249999999999986
20
1.4749999999999974
10
9.5250000000000146
20
9.4750000136511616
42
0.41419891779326473
10
8.5250499999819471
20
10.475000012401166
10
8.5249499999820717
20
10.475000017401165
10
-2.4749999988888698
20
10.475000017401188
42
0.4142135623730957
10
-10.475000014901161
20
2.4750000013889029
10
-10.475000014901152
20
-116.77500000000002
42
0.4142135623730952
10
-2.4750000000000227
20
-124.77500001490115
10
364.42500000000001
20
-124.77500001490125
42
0.41421356237309243
10
372.42500001490123
20
-116.77500000000001
10
372.42500001490112
20
2.4750000015620195
42
0.41421356237309481
10
364.42499999906158
20
10.475000017401513
10
29.574950000004257
20
10.475000017401161
10
29.575050000004133
20
10.475000012401161
42
0.41422820711108022
10
28.574999999999989
20
9.4750000136511545
10
28.574999999999999
20
1.4749999999764218
42
0.41421356237312462
10
29.575000000000102
20
0.47499999997642067
0
CIRCLE
5
101
100
AcDbEntity
8
0
100
AcDbCircle
10
-4.5963203382912896
20
-118.8963203382913
30
0
40
1.250000000000002
210
0
220
0
230
1
0
CIRCLE
5
102
100
AcDbEntity
8
0
100
AcDbCircle
10
120.14999833333337
20
-118.8963203382913
30
0
40
1.2500000000000056
210
0
220
0
230
1
0
CIRCLE
5
103
100
AcDbEntity
8
0
100
AcDbCircle
10
241.8000016666667
20
-118.8963203382913
30
0
40
1.2500000000000056
210
0
220
0
230
1
0
CIRCLE
5
104
100
AcDbEntity
8
0
100
AcDbCircle
10
366.54632033829131
20
-118.8963203382913
30
0
40
1.2500000000000135
210
0
220
0
230
1
0
CIRCLE
5
105
100
AcDbEntity
8
0
100
AcDbCircle
10
366.54632033815381
20
4.5963203394040466
30
0
40
1.2499999999999909
210
0
220
0
230
1
0
CIRCLE
5
106
100
AcDbEntity
8
0
100
AcDbCircle
10
241.8000016666667
20
4.5963203396289041
30
0
40
1.2499999999999891
210
0
220
0
230
1
0
CIRCLE
5
107
100
AcDbEntity
8
0
100
AcDbCircle
10
120.14999833333337
20
4.5963203398481802
30
0
40
1.2500000000000069
210
0
220
0
230
1
0
CIRCLE
5
108
100
AcDbEntity
8
0
100
AcDbCircle
10
-4.5963203375730091
20
4.5963203400730377
30
0
40
1.25
210
0
220
0
230
1
0
ENDSEC
0
SECTION
2
OBJECTS
0
DICTIONARY
5
C
100
AcDbDictionary
3
ACAD_GROUP
350
D
3
ACAD_MLINESTYLE
350
17
0
DICTIONARY
5
D
100
AcDbDictionary
0
DICTIONARY
5
1A
330
C
100
AcDbDictionary
0
DICTIONARY
5
17
100
AcDbDictionary
0
ENDSEC
0
EOF
