0
SECTION
2
HEADER
9
$INSUNITS
70
4
9
$ACADVER
1
AC1014
9
$HANDSEED
5
FFFF
0
ENDSEC
0
SECTION
2
TABLES
0
TABLE
2
VPORT
5
8
100
AcDbSymbolTable
0
ENDTAB
0
TABLE
2
LTYPE
5
5
100
AcDbSymbolTable
0
LTYPE
5
14
100
AcDbSymbolTableRecord
100
AcDbLinetypeTableRecord
2
BYBLOCK
70
0
0
LTYPE
5
15
100
AcDbSymbolTableRecord
100
AcDbLinetypeTableRecord
2
BYLAYER
70
0
0
ENDTAB
0
TABLE
2
LAYER
5
2
100
AcDbSymbolTable
70
2
0
LAYER
5
50
100
AcDbSymbolTableRecord
100
AcDbLayerTableRecord
2
0
70
0
6
CONTINUOUS
0
ENDTAB
0
TABLE
2
STYLE
5
3
100
AcDbSymbolTable
70
1
0
STYLE
5
11
100
AcDbSymbolTableRecord
100
AcDbTextStyleTableRecord
2
STANDARD
70
0
0
ENDTAB
0
TABLE
2
VIEW
5
6
100
AcDbSymbolTable
70
0
0
ENDTAB
0
TABLE
2
UCS
5
7
100
AcDbSymbolTable
70
0
0
ENDTAB
0
TABLE
2
APPID
5
9
100
AcDbSymbolTable
70
2
0
APPID
5
12
100
AcDbSymbolTableRecord
100
AcDbRegAppTableRecord
2
ACAD
70
0
0
ENDTAB
0
TABLE
2
DIMSTYLE
5
A
100
AcDbSymbolTable
70
1
0
ENDTAB
0
TABLE
2
BLOCK_RECORD
5
1
100
AcDbSymbolTable
70
1
0
BLOCK_RECORD
5
1F
100
AcDbSymbolTableRecord
100
AcDbBlockTableRecord
2
*MODEL_SPACE
0
BLOCK_RECORD
5
1B
100
AcDbSymbolTableRecord
100
AcDbBlockTableRecord
2
*PAPER_SPACE
0
ENDTAB
0
ENDSEC
0
SECTION
2
BLOCKS
0
BLOCK
5
20
100
AcDbEntity
100
AcDbBlockBegin
2
*MODEL_SPACE
0
ENDBLK
5
21
100
AcDbEntity
100
AcDbBlockEnd
0
BLOCK
5
1C
100
AcDbEntity
100
AcDbBlockBegin
2
*PAPER_SPACE
0
ENDBLK
5
1D
100
AcDbEntity
100
AcDbBlockEnd
0
ENDSEC
0
SECTION
2
ENTITIES
0
LWPOLYLINE
5
100
100
AcDbEntity
8
0
100
AcDbPolyline
90
8
70
1
43
0.0
10
236.35000000000002
20
-53.524999999999999
42
-0.41421356237309503
10
235.85000000000002
20
-54.024999999999999
10
221.35000000000002
20
-54.025000000000006
42
-0.41421356237309503
10
220.85000000000002
20
-53.524999999999999
10
220.85000000000002
20
-41.725000000000001
42
-0.41421356237309503
10
221.35000000000002
20
-41.225000000000009
10
235.85000000000002
20
-41.224999999999994
42
-0.41421356237309503
10
236.35000000000002
20
-41.725000000000001
0
LWPOLYLINE
5
101
100
AcDbEntity
8
0
100
AcDbPolyline
90
8
70
1
43
0.0
10
239.90000000000003
20
-41.725000000000001
42
-0.41421356237309503
10
240.40000000000003
20
-41.225000000000009
10
254.90000000000003
20
-41.224999999999994
42
-0.41421356237309503
10
255.40000000000003
20
-41.725000000000001
10
255.40000000000003
20
-53.524999999999999
42
-0.41421356237309503
10
254.90000000000003
20
-54.024999999999999
10
240.40000000000003
20
-54.025000000000006
42
-0.41421356237309503
10
239.90000000000003
20
-53.524999999999999
0
LWPOLYLINE
5
102
100
AcDbEntity
8
0
100
AcDbPolyline
90
8
70
1
43
0.0
10
245.375
20
-34.975000000000001
10
230.87500000000003
20
-34.975000000000009
42
-0.41421356237309503
10
230.375
20
-34.475000000000001
10
230.375
20
-22.675000000000001
42
-0.41421356237309503
10
230.87500000000003
20
-22.175000000000004
10
245.375
20
-22.174999999999994
42
-0.41421356237309503
10
245.87500000000003
20
-22.675000000000001
10
245.87500000000003
20
-34.475000000000001
42
-0.41421356237309503
0
LWPOLYLINE
5
103
100
AcDbEntity
8
0
100
AcDbPolyline
90
8
70
1
43
0.0
10
249.92500000000004
20
-34.975000000000009
42
-0.41421356237309503
10
249.42500000000001
20
-34.475000000000001
10
249.42500000000001
20
-22.675000000000001
42
-0.41421356237309503
10
249.92500000000004
20
-22.175000000000004
10
264.42500000000001
20
-22.174999999999994
42
-0.41421356237309503
10
264.92500000000001
20
-22.675000000000001
10
264.92500000000001
20
-34.475000000000001
42
-0.41421356237309503
10
264.42500000000001
20
-34.975000000000009
0
LWPOLYLINE
5
104
100
AcDbEntity
8
0
100
AcDbPolyline
90
8
70
1
43
0.0
10
226.82500000000002
20
-34.475000000000001
42
-0.41421356237309503
10
226.32499999999999
20
-34.975000000000001
10
211.82500000000002
20
-34.975000000000009
42
-0.41421356237309503
10
211.32499999999999
20
-34.475000000000001
10
211.32499999999999
20
-22.675000000000001
42
-0.41421356237309503
10
211.82500000000002
20
-22.175000000000004
10
226.32499999999999
20
-22.174999999999994
42
-0.41421356237309503
10
226.82500000000002
20
-22.675000000000001
0
LWPOLYLINE
5
105
100
AcDbEntity
8
0
100
AcDbPolyline
90
8
70
1
43
0.0
10
226.82500000000002
20
-15.425000000000002
10
226.82500000000002
20
-3.6250000000000004
42
0.41421356237309503
10
226.32499999999999
20
-3.125
10
211.82500000000002
20
-3.125
42
0.41421356237309503
10
211.32499999999999
20
-3.6250000000000004
10
211.32499999999999
20
-15.425000000000002
42
0.41421356237309503
10
211.82500000000002
20
-15.925000000000002
10
226.32499999999999
20
-15.925000000000002
42
0.41421356237309503
0
LWPOLYLINE
5
106
100
AcDbEntity
8
0
100
AcDbPolyline
90
8
70
1
43
0.0
10
249.42500000000001
20
-3.6250000000000004
42
-0.41421356237309503
10
249.92500000000004
20
-3.125
10
264.42500000000001
20
-3.1249999999999933
42
-0.41421356237309503
10
264.92500000000001
20
-3.6250000000000004
10
264.92500000000001
20
-15.425000000000002
42
-0.41421356237309503
10
264.42500000000001
20
-15.925000000000002
10
249.92500000000004
20
-15.92500000000001
42
-0.41421356237309503
10
249.42500000000001
20
-15.425000000000002
0
LWPOLYLINE
5
107
100
AcDbEntity
8
0
100
AcDbPolyline
90
8
70
1
43
0.0
10
230.375
20
-15.425000000000002
10
230.375
20
-3.6250000000000004
42
-0.41421356237309503
10
230.87500000000003
20
-3.125
10
245.375
20
-3.1249999999999933
42
-0.41421356237309503
10
245.87500000000003
20
-3.6250000000000004
10
245.87500000000003
20
-15.425000000000002
42
-0.41421356237309503
10
245.375
20
-15.925000000000002
10
230.87500000000003
20
-15.92500000000001
42
-0.41421356237309503
0
LWPOLYLINE
5
108
100
AcDbEntity
8
0
100
AcDbPolyline
90
8
70
1
43
0.0
10
216.80000000000004
20
-41.224999999999994
42
-0.41421356237309503
10
217.30000000000004
20
-41.725000000000001
10
217.30000000000004
20
-53.524999999999999
42
-0.41421356237309503
10
216.80000000000004
20
-54.024999999999999
10
202.30000000000004
20
-54.025000000000006
42
-0.41421356237309503
10
201.80000000000004
20
-53.524999999999999
10
201.80000000000004
20
-41.725000000000001
42
-0.41421356237309503
10
202.30000000000004
20
-41.225000000000009
0
LWPOLYLINE
5
109
100
AcDbEntity
8
0
100
AcDbPolyline
90
8
70
1
43
0.0
10
198.25000000000003
20
-53.524999999999999
42
-0.41421356237309503
10
197.75000000000003
20
-54.024999999999999
10
183.25
20
-54.02499999999997
42
-0.41421356237309503
10
182.75000000000003
20
-53.524999999999999
10
182.75
20
-41.725000000000001
42
-0.41421356237309503
10
183.25
20
-41.225000000000009
10
197.75000000000003
20
-41.224999999999994
42
-0.41421356237309503
10
198.25000000000003
20
-41.725000000000001
0
LWPOLYLINE
5
110
100
AcDbEntity
8
0
100
AcDbPolyline
90
8
70
1
43
0.0
10
192.77500000000003
20
-34.975000000000009
42
-0.41421356237309503
10
192.27500000000003
20
-34.475000000000001
10
192.27500000000003
20
-22.675000000000001
42
-0.41421356237309503
10
192.77500000000003
20
-22.175000000000004
10
207.27500000000003
20
-22.174999999999994
42
-0.41421356237309503
10
207.77500000000003
20
-22.675000000000001
10
207.77500000000003
20
-34.475000000000001
42
-0.41421356237309503
10
207.27500000000003
20
-34.975000000000001
0
LWPOLYLINE
5
111
100
AcDbEntity
8
0
100
AcDbPolyline
90
8
70
1
43
0.0
10
188.72500000000002
20
-34.475000000000001
42
-0.41421356237309503
10
188.22500000000002
20
-34.975000000000009
10
173.72499999999999
20
-34.974999999999973
42
-0.41421356237309503
10
173.22500000000002
20
-34.475000000000001
10
173.22499999999997
20
-22.675000000000001
42
-0.41421356237309503
10
173.72499999999999
20
-22.175000000000004
10
188.22500000000002
20
-22.174999999999994
42
-0.41421356237309503
10
188.72500000000002
20
-22.675000000000001
0
LWPOLYLINE
5
112
100
AcDbEntity
8
0
100
AcDbPolyline
90
8
70
1
43
0.0
10
192.27500000000003
20
-3.6250000000000004
42
-0.41421356237309503
10
192.77500000000003
20
-3.125
10
207.27500000000003
20
-3.1249999999999933
42
-0.41421356237309503
10
207.77500000000003
20
-3.6250000000000004
10
207.77500000000003
20
-15.425000000000002
42
-0.41421356237309503
10
207.27500000000003
20
-15.925000000000002
10
192.77500000000003
20
-15.92500000000001
42
-0.41421356237309503
10
192.27500000000003
20
-15.425000000000002
0
LWPOLYLINE
5
113
100
AcDbEntity
8
0
100
AcDbPolyline
90
8
70
1
43
0.0
10
188.72500000000002
20
-15.425000000000002
42
-0.41421356237309503
10
188.22500000000002
20
-15.925000000000002
10
173.72499999999999
20
-15.92500000000001
42
-0.41421356237309503
10
173.22499999999997
20
-15.425000000000002
10
173.22499999999997
20
-3.6250000000000004
42
-0.41421356237309503
10
173.72499999999999
20
-3.125
10
188.22500000000002
20
-3.1249999999999933
42
-0.41421356237309503
10
188.72500000000002
20
-3.6250000000000004
0
LWPOLYLINE
5
114
100
AcDbEntity
8
0
100
AcDbPolyline
90
8
70
1
43
0.0
10
255.88075000000003
20
-75.174999999999997
42
-0.41421356237309503
10
255.38075000000003
20
-75.674999999999997
10
249.38075000000001
20
-75.675000000000011
42
-0.41421356237309503
10
248.88075000000001
20
-75.174999999999997
10
248.88075000000001
20
-58.175000000000011
42
-0.41421356237309503
10
249.38075000000001
20
-57.675000000000011
10
255.38075000000003
20
-57.674999999999997
42
-0.41421356237309503
10
255.88075000000003
20
-58.175000000000011
0
LWPOLYLINE
5
115
100
AcDbEntity
8
0
100
AcDbPolyline
90
8
70
1
43
0.0
10
225.61250000000001
20
-60.775000000000006
42
-0.41421356237309503
10
226.11250000000001
20
-60.275000000000006
10
240.61250000000001
20
-60.274999999999999
42
-0.41421356237309503
10
241.11250000000001
20
-60.775000000000006
10
241.11250000000001
20
-72.575000000000003
42
-0.41421356237309503
10
240.61250000000001
20
-73.075000000000003
10
226.11250000000001
20
-73.075000000000017
42
-0.41421356237309503
10
225.61250000000001
20
-72.575000000000003
0
LWPOLYLINE
5
116
100
AcDbEntity
8
0
100
AcDbPolyline
90
8
70
1
43
0.0
10
192.98750000000001
20
-92.125
10
178.48750000000001
20
-92.125
42
-0.41421356237309503
10
177.98750000000001
20
-91.625
10
177.98750000000001
20
-79.825000000000003
42
-0.41421356237309503
10
178.48750000000001
20
-79.325000000000017
10
192.98750000000001
20
-79.325000000000003
42
-0.41421356237309503
10
193.48750000000001
20
-79.825000000000003
10
193.48750000000001
20
-91.625
42
-0.41421356237309503
0
LWPOLYLINE
5
117
100
AcDbEntity
8
0
100
AcDbPolyline
90
8
70
1
43
0.0
10
183.46250000000001
20
-73.075000000000003
10
168.96250000000003
20
-73.075000000000017
42
-0.41421356237309503
10
168.46250000000001
20
-72.575000000000003
10
168.46250000000001
20
-60.775000000000006
42
-0.41421356237309503
10
168.96250000000003
20
-60.274999999999999
10
183.46250000000001
20
-60.274999999999999
42
-0.41421356237309503
10
183.96250000000003
20
-60.775000000000006
10
183.96250000000003
20
-72.575000000000003
42
-0.41421356237309503
0
LWPOLYLINE
5
118
100
AcDbEntity
8
0
100
AcDbPolyline
90
8
70
1
43
0.0
10
231.08750000000001
20
-79.325000000000003
42
-0.41421356237309503
10
231.58750000000001
20
-79.825000000000003
10
231.58750000000001
20
-91.625
42
-0.41421356237309503
10
231.08750000000001
20
-92.125
10
216.58750000000001
20
-92.125
42
-0.41421356237309503
10
216.08750000000001
20
-91.625
10
216.08750000000001
20
-79.825000000000003
42
-0.41421356237309503
10
216.58750000000001
20
-79.325000000000017
0
LWPOLYLINE
5
119
100
AcDbEntity
8
0
100
AcDbPolyline
90
8
70
1
43
0.0
10
221.5625
20
-60.274999999999999
42
-0.41421356237309503
10
222.0625
20
-60.775000000000006
10
222.0625
20
-72.575000000000003
42
-0.41421356237309503
10
221.5625
20
-73.075000000000017
10
207.0625
20
-73.075000000000017
42
-0.41421356237309503
10
206.5625
20
-72.575000000000003
10
206.5625
20
-60.775000000000006
42
-0.41421356237309503
10
207.0625
20
-60.274999999999999
0
LWPOLYLINE
5
120
100
AcDbEntity
8
0
100
AcDbPolyline
90
8
70
1
43
0.0
10
256.56875000000002
20
-72.575000000000003
10
256.56875000000002
20
-60.775000000000006
42
-0.41421356237309503
10
257.06875000000002
20
-60.274999999999999
10
271.56875000000002
20
-60.274999999999999
42
-0.41421356237309503
10
272.06875000000002
20
-60.775000000000006
10
272.06875000000002
20
-72.575000000000003
42
-0.41421356237309503
10
271.56875000000002
20
-73.075000000000003
10
257.06875000000002
20
-73.075000000000017
42
-0.41421356237309503
0
LWPOLYLINE
5
121
100
AcDbEntity
8
0
100
AcDbPolyline
90
8
70
1
43
0.0
10
135.83750000000003
20
-92.125
10
121.33750000000001
20
-92.124999999999986
42
-0.41421356237309503
10
120.83750000000002
20
-91.625
10
120.83750000000002
20
-79.825000000000003
42
-0.41421356237309503
10
121.33750000000001
20
-79.325000000000017
10
135.83750000000003
20
-79.325000000000003
42
-0.41421356237309503
10
136.33750000000003
20
-79.825000000000003
10
136.33750000000003
20
-91.625
42
-0.41421356237309503
0
LWPOLYLINE
5
122
100
AcDbEntity
8
0
100
AcDbPolyline
90
8
70
1
43
0.0
10
54.875000000000007
20
-15.925000000000002
10
40.375000000000007
20
-15.925000000000004
42
-0.41421356237309503
10
39.875
20
-15.425000000000002
10
39.875000000000007
20
-3.6250000000000004
42
-0.41421356237309503
10
40.375000000000007
20
-3.125
10
54.875000000000007
20
-3.1250000000000022
42
-0.41421356237309503
10
55.375000000000007
20
-3.6250000000000004
10
55.375000000000007
20
-15.425000000000002
42
-0.41421356237309503
0
LWPOLYLINE
5
123
100
AcDbEntity
8
0
100
AcDbPolyline
90
8
70
1
43
0.0
10
92.974999999999994
20
-15.925000000000002
10
78.474999999999994
20
-15.925000000000001
42
-0.41421356237309503
10
77.975000000000009
20
-15.425000000000002
10
77.975000000000009
20
-3.6250000000000004
42
-0.41421356237309503
10
78.474999999999994
20
-3.1250000000000004
10
92.974999999999994
20
-3.1249999999999933
42
-0.41421356237309503
10
93.474999999999994
20
-3.6250000000000004
10
93.474999999999994
20
-15.425000000000002
42
-0.41421356237309503
0
LWPOLYLINE
5
124
100
AcDbEntity
8
0
100
AcDbPolyline
90
8
70
1
43
0.0
10
54.875000000000007
20
-34.975000000000009
10
40.375000000000007
20
-34.975000000000009
42
-0.41421356237309503
10
39.875
20
-34.475000000000001
10
39.875000000000007
20
-22.675000000000001
42
-0.41421356237309503
10
40.375000000000007
20
-22.175000000000004
10
54.875000000000007
20
-22.175000000000004
42
-0.41421356237309503
10
55.375000000000007
20
-22.675000000000001
10
55.375000000000014
20
-34.475000000000001
42
-0.41421356237309503
0
LWPOLYLINE
5
125
100
AcDbEntity
8
0
100
AcDbPolyline
90
8
70
1
43
0.0
10
257.28125
20
-79.325000000000003
42
-0.41421356237309503
10
257.78125
20
-79.825000000000003
10
257.78125
20
-91.625
42
-0.41421356237309503
10
257.28125
20
-92.125
10
242.78125000000003
20
-92.125
42
-0.41421356237309503
10
242.28125000000003
20
-91.625
10
242.28125000000003
20
-79.825000000000003
42
-0.41421356237309503
10
242.78125000000003
20
-79.325000000000017
0
LWPOLYLINE
5
126
100
AcDbEntity
8
0
100
AcDbPolyline
90
8
70
1
43
0.0
10
102.5
20
-41.225000000000009
10
88
20
-41.225000000000009
42
0.41421356237309503
10
87.5
20
-41.725000000000001
10
87.5
20
-53.524999999999999
42
0.41421356237309503
10
88
20
-54.024999999999999
10
102.5
20
-54.024999999999999
42
0.41421356237309503
10
103
20
-53.524999999999999
10
103
20
-41.725000000000001
42
0.41421356237309503
0
LWPOLYLINE
5
127
100
AcDbEntity
8
0
100
AcDbPolyline
90
8
70
1
43
0.0
10
92.974999999999994
20
-22.175000000000004
10
78.474999999999994
20
-22.175000000000004
42
0.41421356237309503
10
77.974999999999994
20
-22.675000000000001
10
77.974999999999994
20
-34.475000000000001
42
0.41421356237309503
10
78.474999999999994
20
-34.975000000000009
10
92.974999999999994
20
-34.975000000000001
42
0.41421356237309503
10
93.474999999999994
20
-34.475000000000001
10
93.474999999999994
20
-22.675000000000001
42
0.41421356237309503
0
LWPOLYLINE
5
128
100
AcDbEntity
8
0
100
AcDbPolyline
90
8
70
1
43
0.0
10
97.737499999999997
20
-92.125
10
83.237500000000011
20
-92.125
42
-0.41421356237309503
10
82.737499999999997
20
-91.625
10
82.737499999999997
20
-79.825000000000003
42
-0.41421356237309503
10
83.237500000000011
20
-79.325000000000017
10
97.737499999999997
20
-79.325000000000003
42
-0.41421356237309503
10
98.237500000000011
20
-79.825000000000003
10
98.237500000000011
20
-91.625
42
-0.41421356237309503
0
LWPOLYLINE
5
129
100
AcDbEntity
8
0
100
AcDbPolyline
90
8
70
1
43
0.0
10
321.57499999999999
20
-15.925000000000002
10
307.07499999999999
20
-15.92500000000001
42
-0.41421356237309503
10
306.57499999999999
20
-15.425000000000002
10
306.57499999999999
20
-3.6250000000000004
42
-0.41421356237309503
10
307.07499999999999
20
-3.125
10
321.57499999999999
20
-3.1250000000000289
42
-0.41421356237309503
10
322.07499999999993
20
-3.6250000000000004
10
322.07499999999993
20
-15.425000000000002
42
-0.41421356237309503
0
LWPOLYLINE
5
130
100
AcDbEntity
8
0
100
AcDbPolyline
90
8
70
1
43
0.0
10
249.42500000000001
20
-98.875000000000014
42
-0.41421356237309503
10
249.92500000000004
20
-98.375
10
264.42500000000001
20
-98.375
42
-0.41421356237309503
10
264.92500000000001
20
-98.875000000000014
10
264.92500000000001
20
-110.67500000000001
42
-0.41421356237309503
10
264.42500000000001
20
-111.175
10
249.92500000000004
20
-111.17500000000001
42
-0.41421356237309503
10
249.42500000000001
20
-110.67500000000001
0
LWPOLYLINE
5
131
100
AcDbEntity
8
0
100
AcDbPolyline
90
8
70
1
43
0.0
10
150.125
20
-22.175000000000004
10
135.625
20
-22.175000000000004
42
0.41421356237309503
10
135.125
20
-22.675000000000001
10
135.125
20
-34.475000000000001
42
0.41421356237309503
10
135.625
20
-34.975000000000009
10
150.125
20
-34.975000000000009
42
0.41421356237309503
10
150.625
20
-34.475000000000001
10
150.625
20
-22.675000000000001
42
0.41421356237309503
0
LWPOLYLINE
5
132
100
AcDbEntity
8
0
100
AcDbPolyline
90
8
70
1
43
0.0
10
149.91250000000002
20
-73.075000000000017
42
-0.41421356237309503
10
149.41249999999999
20
-72.575000000000003
10
149.41249999999999
20
-60.775000000000006
42
-0.41421356237309503
10
149.91250000000002
20
-60.274999999999999
10
164.41249999999999
20
-60.274999999999999
42
-0.41421356237309503
10
164.91250000000002
20
-60.775000000000006
10
164.91250000000002
20
-72.575000000000003
42
-0.41421356237309503
10
164.41249999999999
20
-73.075000000000003
0
LWPOLYLINE
5
133
100
AcDbEntity
8
0
100
AcDbPolyline
90
8
70
1
43
0.0
10
145.36250000000001
20
-60.274999999999999
10
130.86250000000001
20
-60.275000000000006
42
0.41421356237309503
10
130.36250000000001
20
-60.775000000000006
10
130.36250000000001
20
-72.575000000000003
42
0.41421356237309503
10
130.86250000000001
20
-73.075000000000003
10
145.36250000000001
20
-73.075000000000003
42
0.41421356237309503
10
145.86250000000004
20
-72.575000000000003
10
145.86250000000001
20
-60.775000000000006
42
0.41421356237309503
0
LWPOLYLINE
5
134
100
AcDbEntity
8
0
100
AcDbPolyline
90
8
70
1
43
0.0
10
45.350000000000001
20
-54.024999999999999
10
30.850000000000005
20
-54.024999999999999
42
-0.41421356237309503
10
30.350000000000001
20
-53.524999999999999
10
30.350000000000005
20
-41.725000000000001
42
-0.41421356237309503
10
30.850000000000005
20
-41.225000000000009
10
45.350000000000001
20
-41.225000000000009
42
-0.41421356237309503
10
45.850000000000001
20
-41.725000000000001
10
45.850000000000001
20
-53.524999999999999
42
-0.41421356237309503
0
LWPOLYLINE
5
135
100
AcDbEntity
8
0
100
AcDbPolyline
90
8
70
1
43
0.0
10
50.112500000000004
20
-73.075000000000003
10
35.612499999999997
20
-73.075000000000003
42
-0.41421356237309503
10
35.112499999999997
20
-72.575000000000003
10
35.112499999999997
20
-60.775000000000006
42
-0.41421356237309503
10
35.612499999999997
20
-60.275000000000006
10
50.112500000000004
20
-60.275000000000006
42
-0.41421356237309503
10
50.612500000000004
20
-60.775000000000006
10
50.612500000000004
20
-72.575000000000003
42
-0.41421356237309503
0
LWPOLYLINE
5
136
100
AcDbEntity
8
0
100
AcDbPolyline
90
8
70
1
43
0.0
10
321.57499999999999
20
-111.175
10
307.07499999999999
20
-111.17500000000001
42
-0.41421356237309503
10
306.57499999999999
20
-110.67500000000001
10
306.57499999999999
20
-98.875000000000014
42
-0.41421356237309503
10
307.07499999999999
20
-98.375
10
321.57499999999999
20
-98.375000000000043
42
-0.41421356237309503
10
322.07499999999993
20
-98.875000000000014
10
322.07499999999993
20
-110.67500000000001
42
-0.41421356237309503
0
LWPOLYLINE
5
137
100
AcDbEntity
8
0
100
AcDbPolyline
90
8
70
1
43
0.0
10
141.09999999999999
20
-53.524999999999999
42
-0.41421356237309503
10
140.59999999999999
20
-54.024999999999999
10
126.09999999999999
20
-54.024999999999991
42
-0.41421356237309503
10
125.60000000000001
20
-53.524999999999999
10
125.59999999999999
20
-41.725000000000001
42
-0.41421356237309503
10
126.09999999999999
20
-41.225000000000009
10
140.59999999999999
20
-41.225000000000016
42
-0.41421356237309503
10
141.09999999999999
20
-41.725000000000001
0
LWPOLYLINE
5
138
100
AcDbEntity
8
0
100
AcDbPolyline
90
8
70
1
43
0.0
10
159.65000000000001
20
-41.225000000000016
42
-0.41421356237309503
10
160.15000000000001
20
-41.725000000000001
10
160.15000000000001
20
-53.524999999999999
42
-0.41421356237309503
10
159.65000000000001
20
-54.024999999999999
10
145.15000000000001
20
-54.024999999999991
42
-0.41421356237309503
10
144.65000000000001
20
-53.524999999999999
10
144.65000000000001
20
-41.725000000000001
42
-0.41421356237309503
10
145.15000000000001
20
-41.225000000000009
0
LWPOLYLINE
5
139
100
AcDbEntity
8
0
100
AcDbPolyline
90
8
70
1
43
0.0
10
240.61250000000001
20
-111.17500000000001
10
226.11250000000001
20
-111.17500000000001
42
-0.41421356237309503
10
225.61250000000001
20
-110.67500000000001
10
225.61250000000001
20
-98.875000000000014
42
-0.41421356237309503
10
226.11250000000001
20
-98.375
10
240.61250000000001
20
-98.375
42
-0.41421356237309503
10
241.11250000000001
20
-98.875000000000014
10
241.11250000000001
20
-110.67500000000001
42
-0.41421356237309503
0
LWPOLYLINE
5
140
100
AcDbEntity
8
0
100
AcDbPolyline
90
8
70
1
43
0.0
10
50.112500000000004
20
-98.375
10
35.612499999999997
20
-98.375
42
0.41421356237309503
10
35.112499999999997
20
-98.875000000000014
10
35.112499999999997
20
-110.67500000000001
42
0.41421356237309503
10
35.612499999999997
20
-111.175
10
50.112500000000004
20
-111.175
42
0.41421356237309503
10
50.612500000000004
20
-110.67500000000001
10
50.612500000000004
20
-98.875000000000014
42
0.41421356237309503
0
LWPOLYLINE
5
141
100
AcDbEntity
8
0
100
AcDbPolyline
90
8
70
1
43
0.0
10
150.125
20
-3.1250000000000004
10
135.625
20
-3.1250000000000004
42
0.41421356237309503
10
135.125
20
-3.6250000000000004
10
135.125
20
-15.425000000000002
42
0.41421356237309503
10
135.625
20
-15.925000000000002
10
150.125
20
-15.925000000000002
42
0.41421356237309503
10
150.62500000000003
20
-15.425000000000002
10
150.62500000000003
20
-3.6250000000000004
42
0.41421356237309503
0
LWPOLYLINE
5
142
100
AcDbEntity
8
0
100
AcDbPolyline
90
8
70
1
43
0.0
10
59.63750000000001
20
-79.325000000000017
10
45.13750000000001
20
-79.325000000000017
42
0.41421356237309503
10
44.637500000000003
20
-79.825000000000003
10
44.63750000000001
20
-91.625
42
0.41421356237309503
10
45.13750000000001
20
-92.125
10
59.63750000000001
20
-92.125
42
0.41421356237309503
10
60.13750000000001
20
-91.625
10
60.13750000000001
20
-79.825000000000003
42
0.41421356237309503
0
LWPOLYLINE
5
143
100
AcDbEntity
8
0
100
AcDbPolyline
90
8
70
1
43
0.0
10
155.38749999999999
20
-91.625
10
155.38749999999999
20
-79.825000000000003
42
0.41421356237309503
10
154.88749999999999
20
-79.325000000000017
10
140.38749999999999
20
-79.325000000000017
42
0.41421356237309503
10
139.88749999999999
20
-79.825000000000003
10
139.88749999999999
20
-91.625
42
0.41421356237309503
10
140.38749999999999
20
-92.125
10
154.88749999999999
20
-92.125
42
0.41421356237309503
0
LWPOLYLINE
5
144
100
AcDbEntity
8
0
100
AcDbPolyline
90
8
70
1
43
0.0
10
179.19999999999999
20
-53.524999999999999
10
179.20000000000002
20
-41.725000000000001
42
0.41421356237309503
10
178.70000000000002
20
-41.225000000000009
10
164.19999999999999
20
-41.225000000000009
42
0.41421356237309503
10
163.70000000000002
20
-41.725000000000001
10
163.70000000000002
20
-53.524999999999999
42
0.41421356237309503
10
164.19999999999999
20
-54.024999999999999
10
178.70000000000002
20
-54.024999999999999
42
0.41421356237309503
0
LWPOLYLINE
5
145
100
AcDbEntity
8
0
100
AcDbPolyline
90
8
70
1
43
0.0
10
321.57499999999999
20
-92.125
10
307.07499999999999
20
-92.125
42
-0.41421356237309503
10
306.57499999999999
20
-91.625
10
306.57499999999999
20
-79.825000000000003
42
-0.41421356237309503
10
307.07499999999999
20
-79.325000000000017
10
321.57499999999999
20
-79.32499999999996
42
-0.41421356237309503
10
322.07500000000005
20
-79.825000000000003
10
322.07499999999993
20
-91.625
42
-0.41421356237309503
0
LWPOLYLINE
5
146
100
AcDbEntity
8
0
100
AcDbPolyline
90
8
70
1
43
0.0
10
68.950000000000003
20
-54.024999999999999
42
-0.41421356237309503
10
68.450000000000003
20
-53.524999999999999
10
68.450000000000003
20
-41.725000000000001
42
-0.41421356237309503
10
68.950000000000003
20
-41.225000000000009
10
83.450000000000003
20
-41.224999999999994
42
-0.41421356237309503
10
83.950000000000017
20
-41.725000000000001
10
83.949999999999989
20
-53.524999999999999
42
-0.41421356237309503
10
83.450000000000003
20
-54.024999999999999
0
LWPOLYLINE
5
147
100
AcDbEntity
8
0
100
AcDbPolyline
90
8
70
1
43
0.0
10
73.212500000000006
20
-60.775000000000006
42
-0.41421356237309503
10
73.712500000000006
20
-60.274999999999999
10
88.212500000000006
20
-60.274999999999999
42
-0.41421356237309503
10
88.71250000000002
20
-60.775000000000006
10
88.71250000000002
20
-72.575000000000003
42
-0.41421356237309503
10
88.212500000000006
20
-73.075000000000017
10
73.712500000000006
20
-73.075000000000003
42
-0.41421356237309503
10
73.212500000000006
20
-72.575000000000003
0
LWPOLYLINE
5
148
100
AcDbEntity
8
0
100
AcDbPolyline
90
8
70
1
43
0.0
10
69.162499999999994
20
-73.075000000000017
10
54.662500000000009
20
-73.075000000000003
42
-0.41421356237309503
10
54.162500000000009
20
-72.575000000000003
10
54.162499999999994
20
-60.775000000000006
42
-0.41421356237309503
10
54.662500000000009
20
-60.274999999999999
10
69.162499999999994
20
-60.275000000000006
42
-0.41421356237309503
10
69.662499999999994
20
-60.775000000000006
10
69.662500000000009
20
-72.575000000000003
42
-0.41421356237309503
0
LWPOLYLINE
5
149
100
AcDbEntity
8
0
100
AcDbPolyline
90
8
70
1
43
0.0
10
78.6875
20
-79.325000000000017
10
64.1875
20
-79.325000000000017
42
0.41421356237309503
10
63.6875
20
-79.825000000000003
10
63.6875
20
-91.625
42
0.41421356237309503
10
64.1875
20
-92.125
10
78.6875
20
-92.125
42
0.41421356237309503
10
79.1875
20
-91.625
10
79.1875
20
-79.825000000000003
42
0.41421356237309503
0
LWPOLYLINE
5
150
100
AcDbEntity
8
0
100
AcDbPolyline
90
8
70
1
43
0.0
10
321.57499999999999
20
-54.024999999999999
10
307.07499999999999
20
-54.025000000000006
42
-0.41421356237309503
10
306.57499999999999
20
-53.524999999999999
10
306.57499999999999
20
-41.725000000000001
42
-0.41421356237309503
10
307.07499999999999
20
-41.225000000000009
10
321.57499999999999
20
-41.224999999999959
42
-0.41421356237309503
10
322.07500000000005
20
-41.725000000000001
10
322.07499999999993
20
-53.524999999999999
42
-0.41421356237309503
0
LWPOLYLINE
5
151
100
AcDbEntity
8
0
100
AcDbPolyline
90
8
70
1
43
0.0
10
49.400000000000006
20
-53.524999999999999
10
49.400000000000006
20
-41.725000000000001
42
-0.41421356237309503
10
49.900000000000006
20
-41.225000000000009
10
64.400000000000006
20
-41.225000000000009
42
-0.41421356237309503
10
64.900000000000006
20
-41.725000000000001
10
64.900000000000006
20
-53.524999999999999
42
-0.41421356237309503
10
64.400000000000006
20
-54.024999999999999
10
49.900000000000006
20
-54.024999999999999
42
-0.41421356237309503
0
LWPOLYLINE
5
152
100
AcDbEntity
8
0
100
AcDbPolyline
90
8
70
1
43
0.0
10
97.025000000000006
20
-34.475000000000001
10
97.025000000000006
20
-22.675000000000001
42
-0.41421356237309503
10
97.525000000000006
20
-22.175000000000004
10
112.02500000000001
20
-22.174999999999994
42
-0.41421356237309503
10
112.52500000000001
20
-22.675000000000001
10
112.52500000000001
20
-34.475000000000001
42
-0.41421356237309503
10
112.02500000000001
20
-34.975000000000001
10
97.525000000000006
20
-34.975000000000009
42
-0.41421356237309503
0
LWPOLYLINE
5
153
100
AcDbEntity
8
0
100
AcDbPolyline
90
8
70
1
43
0.0
10
101.78750000000001
20
-91.625
10
101.78750000000001
20
-79.825000000000003
42
-0.41421356237309503
10
102.28749999999999
20
-79.325000000000017
10
116.78750000000001
20
-79.325000000000017
42
-0.41421356237309503
10
117.28749999999999
20
-79.825000000000003
10
117.28750000000002
20
-91.625
42
-0.41421356237309503
10
116.78750000000001
20
-92.125
10
102.28749999999999
20
-92.124999999999986
42
-0.41421356237309503
0
LWPOLYLINE
5
154
100
AcDbEntity
8
0
100
AcDbPolyline
90
8
70
1
43
0.0
10
73.924999999999997
20
-34.975000000000009
10
59.424999999999997
20
-34.975000000000001
42
-0.41421356237309503
10
58.924999999999997
20
-34.475000000000001
10
58.924999999999997
20
-22.675000000000001
42
-0.41421356237309503
10
59.424999999999997
20
-22.175000000000004
10
73.924999999999997
20
-22.175000000000004
42
-0.41421356237309503
10
74.424999999999997
20
-22.675000000000001
10
74.425000000000011
20
-34.475000000000001
42
-0.41421356237309503
0
LWPOLYLINE
5
155
100
AcDbEntity
8
0
100
AcDbPolyline
90
8
70
1
43
0.0
10
302.52499999999998
20
-41.225000000000009
10
288.02499999999998
20
-41.225000000000009
42
0.41421356237309503
10
287.52499999999998
20
-41.725000000000001
10
287.52499999999998
20
-53.524999999999999
42
0.41421356237309503
10
288.02499999999998
20
-54.024999999999999
10
302.52499999999998
20
-54.024999999999999
42
0.41421356237309503
10
303.02499999999998
20
-53.524999999999999
10
303.02499999999998
20
-41.725000000000001
42
0.41421356237309503
0
LWPOLYLINE
5
156
100
AcDbEntity
8
0
100
AcDbPolyline
90
8
70
1
43
0.0
10
303.02499999999998
20
-72.575000000000003
10
303.02499999999998
20
-60.775000000000006
42
0.41421356237309503
10
302.52499999999998
20
-60.274999999999999
10
288.02499999999998
20
-60.275000000000006
42
0.41421356237309503
10
287.52499999999998
20
-60.775000000000006
10
287.52499999999998
20
-72.575000000000003
42
0.41421356237309503
10
288.02499999999998
20
-73.075000000000017
10
302.52499999999998
20
-73.075000000000003
42
0.41421356237309503
0
LWPOLYLINE
5
157
100
AcDbEntity
8
0
100
AcDbPolyline
90
8
70
1
43
0.0
10
283.47500000000002
20
-34.975000000000001
10
268.97500000000002
20
-34.975000000000009
42
-0.41421356237309503
10
268.47500000000002
20
-34.475000000000001
10
268.47500000000002
20
-22.675000000000001
42
-0.41421356237309503
10
268.97500000000002
20
-22.175000000000004
10
283.47500000000002
20
-22.174999999999994
42
-0.41421356237309503
10
283.97500000000002
20
-22.675000000000001
10
283.97500000000002
20
-34.475000000000001
42
-0.41421356237309503
0
LWPOLYLINE
5
158
100
AcDbEntity
8
0
100
AcDbPolyline
90
8
70
1
43
0.0
10
321.57499999999999
20
-22.175000000000004
10
307.07499999999999
20
-22.175000000000004
42
0.41421356237309503
10
306.57499999999999
20
-22.675000000000001
10
306.57499999999999
20
-34.475000000000001
42
0.41421356237309503
10
307.07499999999999
20
-34.975000000000009
10
321.57499999999999
20
-34.975000000000001
42
0.41421356237309503
10
322.07500000000005
20
-34.475000000000001
10
322.07500000000005
20
-22.675000000000001
42
0.41421356237309503
0
LWPOLYLINE
5
159
100
AcDbEntity
8
0
100
AcDbPolyline
90
8
70
1
43
0.0
10
158.9375
20
-91.625
10
158.9375
20
-79.825000000000003
42
-0.41421356237309503
10
159.4375
20
-79.325000000000017
10
173.9375
20
-79.325000000000003
42
-0.41421356237309503
10
174.4375
20
-79.825000000000003
10
174.4375
20
-91.625
42
-0.41421356237309503
10
173.9375
20
-92.125
10
159.4375
20
-92.125
42
-0.41421356237309503
0
LWPOLYLINE
5
160
100
AcDbEntity
8
0
100
AcDbPolyline
90
8
70
1
43
0.0
10
278.71249999999998
20
-41.224999999999994
42
-0.41421356237309503
10
279.21249999999998
20
-41.725000000000001
10
279.21249999999998
20
-53.524999999999999
42
-0.41421356237309503
10
278.71249999999998
20
-54.024999999999999
10
264.21249999999998
20
-54.025000000000006
42
-0.41421356237309503
10
263.71249999999998
20
-53.524999999999999
10
263.71249999999998
20
-41.725000000000001
42
-0.41421356237309503
10
264.21249999999998
20
-41.225000000000009
0
LWPOLYLINE
5
161
100
AcDbEntity
8
0
100
AcDbPolyline
90
8
70
1
43
0.0
10
169.17500000000001
20
-34.975000000000009
10
154.67500000000001
20
-34.975000000000009
42
-0.41421356237309503
10
154.17500000000001
20
-34.475000000000001
10
154.17500000000001
20
-22.675000000000001
42
-0.41421356237309503
10
154.67500000000001
20
-22.175000000000004
10
169.17500000000001
20
-22.174999999999994
42
-0.41421356237309503
10
169.67500000000001
20
-22.675000000000001
10
169.67500000000001
20
-34.475000000000001
42
-0.41421356237309503
0
LWPOLYLINE
5
162
100
AcDbEntity
8
0
100
AcDbPolyline
90
8
70
1
43
0.0
10
107.76250000000002
20
-72.575000000000003
42
-0.41421356237309503
10
107.2625
20
-73.075000000000017
10
92.762500000000017
20
-73.075000000000017
42
-0.41421356237309503
10
92.262500000000003
20
-72.575000000000003
10
92.262500000000003
20
-60.775000000000006
42
-0.41421356237309503
10
92.762500000000017
20
-60.274999999999999
10
107.2625
20
-60.274999999999999
42
-0.41421356237309503
10
107.76250000000002
20
-60.775000000000006
0
LWPOLYLINE
5
163
100
AcDbEntity
8
0
100
AcDbPolyline
90
8
70
1
43
0.0
10
126.81250000000003
20
-72.575000000000003
42
-0.41421356237309503
10
126.31250000000001
20
-73.075000000000003
10
111.8125
20
-73.074999999999989
42
-0.41421356237309503
10
111.31250000000001
20
-72.575000000000003
10
111.3125
20
-60.775000000000006
42
-0.41421356237309503
10
111.8125
20
-60.274999999999999
10
126.31250000000001
20
-60.274999999999999
42
-0.41421356237309503
10
126.81250000000003
20
-60.775000000000006
0
LWPOLYLINE
5
164
100
AcDbEntity
8
0
100
AcDbPolyline
90
8
70
1
43
0.0
10
106.55000000000001
20
-41.725000000000001
42
-0.41421356237309503
10
107.05
20
-41.225000000000009
10
121.55000000000001
20
-41.224999999999994
42
-0.41421356237309503
10
122.05000000000001
20
-41.725000000000001
10
122.05000000000001
20
-53.524999999999999
42
-0.41421356237309503
10
121.55000000000001
20
-54.024999999999999
10
107.05
20
-54.025000000000006
42
-0.41421356237309503
10
106.55
20
-53.524999999999999
0
LWPOLYLINE
5
165
100
AcDbEntity
8
0
100
AcDbPolyline
90
8
70
1
43
0.0
10
202.51249999999999
20
-73.075000000000003
10
188.01249999999999
20
-73.075000000000017
42
-0.41421356237309503
10
187.51249999999999
20
-72.575000000000003
10
187.51249999999999
20
-60.775000000000006
42
-0.41421356237309503
10
188.01249999999999
20
-60.275000000000006
10
202.51249999999999
20
-60.274999999999999
42
-0.41421356237309503
10
203.01249999999999
20
-60.775000000000006
10
203.01249999999999
20
-72.575000000000003
42
-0.41421356237309503
0
LWPOLYLINE
5
166
100
AcDbEntity
8
0
100
AcDbPolyline
90
8
70
1
43
0.0
10
302.52499999999998
20
-79.325000000000003
42
-0.41421356237309503
10
303.02499999999998
20
-79.825000000000003
10
303.02499999999998
20
-91.625
42
-0.41421356237309503
10
302.52499999999998
20
-92.125
10
288.02499999999998
20
-92.125
42
-0.41421356237309503
10
287.52499999999998
20
-91.625
10
287.52499999999998
20
-79.825000000000003
42
-0.41421356237309503
10
288.02499999999998
20
-79.325000000000017
0
LWPOLYLINE
5
167
100
AcDbEntity
8
0
100
AcDbPolyline
90
8
70
1
43
0.0
10
302.52499999999998
20
-34.975000000000009
10
288.02499999999998
20
-34.975000000000009
42
-0.41421356237309503
10
287.52499999999998
20
-34.475000000000001
10
287.52499999999998
20
-22.675000000000001
42
-0.41421356237309503
10
288.02499999999998
20
-22.175000000000004
10
302.52499999999998
20
-22.174999999999994
42
-0.41421356237309503
10
303.02499999999998
20
-22.675000000000001
10
303.02499999999998
20
-34.475000000000001
42
-0.41421356237309503
0
LWPOLYLINE
5
168
100
AcDbEntity
8
0
100
AcDbPolyline
90
8
70
1
43
0.0
10
212.53749999999999
20
-91.625
10
212.53749999999999
20
-79.825000000000003
42
0.41421356237309503
10
212.03749999999999
20
-79.325000000000017
10
197.53749999999999
20
-79.325000000000017
42
0.41421356237309503
10
197.03749999999999
20
-79.825000000000003
10
197.03749999999999
20
-91.625
42
0.41421356237309503
10
197.53749999999999
20
-92.125
10
212.03749999999999
20
-92.125
42
0.41421356237309503
0
LWPOLYLINE
5
169
100
AcDbEntity
8
0
100
AcDbPolyline
90
8
70
1
43
0.0
10
131.57500000000002
20
-34.475000000000001
10
131.57499999999999
20
-22.675000000000001
42
0.41421356237309503
10
131.07499999999999
20
-22.175000000000004
10
116.575
20
-22.175000000000004
42
0.41421356237309503
10
116.075
20
-22.675000000000001
10
116.075
20
-34.475000000000001
42
0.41421356237309503
10
116.575
20
-34.975000000000001
10
131.07499999999999
20
-34.975000000000001
42
0.41421356237309503
0
LWPOLYLINE
5
170
100
AcDbEntity
8
0
100
AcDbPolyline
90
8
70
1
43
0.0
10
2.2749999999999999
20
-34.975000000000001
42
-0.41421356237309503
10
1.7749999999999999
20
-34.475000000000001
10
1.7750000000000019
20
-22.675000000000001
42
-0.41421356237309503
10
2.2750000000000004
20
-22.175000000000004
10
16.774999999999999
20
-22.175000000000004
42
-0.41421356237309503
10
17.274999999999999
20
-22.675000000000001
10
17.275000000000002
20
-34.475000000000001
42
-0.41421356237309503
10
16.774999999999999
20
-34.975000000000009
0
LWPOLYLINE
5
171
100
AcDbEntity
8
0
100
AcDbPolyline
90
8
70
1
43
0.0
10
74.424999999999997
20
-15.425000000000002
10
74.424999999999997
20
-3.6250000000000004
42
0.41421356237309503
10
73.924999999999997
20
-3.125
10
59.424999999999997
20
-3.1250000000000004
42
0.41421356237309503
10
58.924999999999997
20
-3.6250000000000004
10
58.924999999999997
20
-15.425000000000002
42
0.41421356237309503
10
59.424999999999997
20
-15.925000000000002
10
73.924999999999997
20
-15.925000000000002
42
0.41421356237309503
0
LWPOLYLINE
5
172
100
AcDbEntity
8
0
100
AcDbPolyline
90
8
70
1
43
0.0
10
341.125
20
-53.524999999999999
42
-0.41421356237309503
10
340.625
20
-54.024999999999999
10
326.12500000000006
20
-54.02499999999997
42
-0.41421356237309503
10
325.62500000000006
20
-53.524999999999999
10
325.62500000000006
20
-41.725000000000001
42
-0.41421356237309503
10
326.12500000000006
20
-41.225000000000009
10
340.625
20
-41.224999999999959
42
-0.41421356237309503
10
341.12500000000006
20
-41.725000000000001
0
LWPOLYLINE
5
173
100
AcDbEntity
8
0
100
AcDbPolyline
90
8
70
1
43
0.0
10
25.587500000000002
20
-79.825000000000003
42
-0.41421356237309503
10
26.087500000000002
20
-79.325000000000017
10
40.587499999999999
20
-79.325000000000017
42
-0.41421356237309503
10
41.087499999999999
20
-79.825000000000003
10
41.087500000000006
20
-91.625
42
-0.41421356237309503
10
40.587499999999999
20
-92.125
10
26.087500000000002
20
-92.124999999999986
42
-0.41421356237309503
10
25.587500000000002
20
-91.625
0
LWPOLYLINE
5
174
100
AcDbEntity
8
0
100
AcDbPolyline
90
8
70
1
43
0.0
10
8.9187500000000028
20
-60.775000000000006
42
-0.41421356237309503
10
9.4187499999999993
20
-60.275000000000006
10
23.918750000000003
20
-60.275000000000006
42
-0.41421356237309503
10
24.418749999999999
20
-60.775000000000006
10
24.41875000000001
20
-72.575000000000003
42
-0.41421356237309503
10
23.918750000000003
20
-73.075000000000017
10
9.4187499999999993
20
-73.075000000000003
42
-0.41421356237309503
10
8.9187499999999993
20
-72.575000000000003
0
LWPOLYLINE
5
175
100
AcDbEntity
8
0
100
AcDbPolyline
90
8
70
1
43
0.0
10
131.07499999999999
20
-98.375000000000028
42
-0.41421356237309503
10
131.57499999999999
20
-98.875000000000014
10
131.57499999999999
20
-110.67500000000001
42
-0.41421356237309503
10
131.07499999999999
20
-111.175
10
116.575
20
-111.175
42
-0.41421356237309503
10
116.07500000000002
20
-110.67500000000001
10
116.075
20
-98.875000000000014
42
-0.41421356237309503
10
116.575
20
-98.375
0
LWPOLYLINE
5
176
100
AcDbEntity
8
0
100
AcDbPolyline
90
8
70
1
43
0.0
10
4.1562500000000018
20
-79.825000000000003
42
-0.41421356237309503
10
4.65625
20
-79.325000000000017
10
19.15625
20
-79.325000000000017
42
-0.41421356237309503
10
19.65625
20
-79.825000000000003
10
19.656250000000007
20
-91.625
42
-0.41421356237309503
10
19.15625
20
-92.125
10
4.65625
20
-92.125
42
-0.41421356237309503
10
4.15625
20
-91.625
0
LWPOLYLINE
5
177
100
AcDbEntity
8
0
100
AcDbPolyline
90
8
70
1
43
0.0
10
70.175000000000011
20
-113.27500000000001
42
-0.41421356237309503
10
69.674999999999997
20
-113.77500000000001
10
63.674999999999997
20
-113.77500000000001
42
-0.41421356237309503
10
63.174999999999997
20
-113.27500000000001
10
63.17499999999999
20
-96.275000000000006
42
-0.41421356237309503
10
63.674999999999997
20
-95.775000000000006
10
69.674999999999997
20
-95.775000000000006
42
-0.41421356237309503
10
70.174999999999997
20
-96.275000000000006
0
LWPOLYLINE
5
178
100
AcDbEntity
8
0
100
AcDbPolyline
90
8
70
1
43
0.0
10
197.03749999999999
20
-98.875000000000014
42
-0.41421356237309503
10
197.53749999999999
20
-98.375
10
212.03749999999999
20
-98.375
42
-0.41421356237309503
10
212.53749999999999
20
-98.875000000000014
10
212.53749999999997
20
-110.67500000000001
42
-0.41421356237309503
10
212.03749999999999
20
-111.175
10
197.53749999999999
20
-111.17500000000001
42
-0.41421356237309503
10
197.03749999999999
20
-110.67500000000001
0
LWPOLYLINE
5
179
100
AcDbEntity
8
0
100
AcDbPolyline
90
8
70
1
43
0.0
10
154.17500000000001
20
-3.6250000000000004
42
-0.41421356237309503
10
154.67500000000001
20
-3.125
10
169.17500000000001
20
-3.1249999999999933
42
-0.41421356237309503
10
169.67500000000001
20
-3.6250000000000004
10
169.67500000000001
20
-15.425000000000002
42
-0.41421356237309503
10
169.17500000000001
20
-15.925000000000002
10
154.67500000000001
20
-15.924999999999992
42
-0.41421356237309503
10
154.17500000000001
20
-15.425000000000002
0
LWPOLYLINE
5
180
100
AcDbEntity
8
0
100
AcDbPolyline
90
8
70
1
43
0.0
10
22.037500000000001
20
-53.524999999999999
10
22.037500000000001
20
-41.725000000000001
42
0.41421356237309503
10
21.537500000000001
20
-41.225000000000009
10
7.0374999999999996
20
-41.225000000000009
42
0.41421356237309503
10
6.5374999999999996
20
-41.725000000000001
10
6.5375000000000005
20
-53.524999999999999
42
0.41421356237309503
10
7.0374999999999988
20
-54.024999999999999
10
21.537500000000001
20
-54.024999999999999
42
0.41421356237309503
0
LWPOLYLINE
5
181
100
AcDbEntity
8
0
100
AcDbPolyline
90
8
70
1
43
0.0
10
35.825000000000003
20
-34.975000000000001
10
21.324999999999999
20
-34.975000000000001
42
-0.41421356237309503
10
20.824999999999999
20
-34.475000000000001
10
20.824999999999999
20
-22.675000000000001
42
-0.41421356237309503
10
21.324999999999999
20
-22.175000000000004
10
35.825000000000003
20
-22.175000000000004
42
-0.41421356237309503
10
36.325000000000003
20
-22.675000000000001
10
36.325000000000003
20
-34.475000000000001
42
-0.41421356237309503
0
LWPOLYLINE
5
182
100
AcDbEntity
8
0
100
AcDbPolyline
90
8
70
1
43
0.0
10
268.47500000000002
20
-79.825000000000003
42
-0.41421356237309503
10
268.97500000000002
20
-79.325000000000017
10
283.47500000000002
20
-79.325000000000003
42
-0.41421356237309503
10
283.97500000000002
20
-79.825000000000003
10
283.97500000000002
20
-91.625
42
-0.41421356237309503
10
283.47500000000002
20
-92.125
10
268.97500000000002
20
-92.125
42
-0.41421356237309503
10
268.47500000000002
20
-91.625
0
LWPOLYLINE
5
183
100
AcDbEntity
8
0
100
AcDbPolyline
90
8
70
1
43
0.0
10
360.17499999999995
20
-53.524999999999999
10
360.17499999999995
20
-41.725000000000001
42
0.41421356237309503
10
359.67500000000001
20
-41.225000000000009
10
345.17500000000007
20
-41.225000000000009
42
0.41421356237309503
10
344.67500000000007
20
-41.725000000000001
10
344.67500000000001
20
-53.524999999999999
42
0.41421356237309503
10
345.17500000000007
20
-54.024999999999999
10
359.67500000000001
20
-54.024999999999999
42
0.41421356237309503
0
LWPOLYLINE
5
184
100
AcDbEntity
8
0
100
AcDbPolyline
90
8
70
1
43
0.0
10
341.125
20
-34.475000000000001
42
-0.41421356237309503
10
340.625
20
-34.975000000000001
10
326.12500000000006
20
-34.974999999999973
42
-0.41421356237309503
10
325.62500000000006
20
-34.475000000000001
10
325.62500000000006
20
-22.675000000000001
42
-0.41421356237309503
10
326.12500000000006
20
-22.175000000000004
10
340.625
20
-22.174999999999958
42
-0.41421356237309503
10
341.12500000000006
20
-22.675000000000001
0
LWPOLYLINE
5
185
100
AcDbEntity
8
0
100
AcDbPolyline
90
8
70
1
43
0.0
10
306.57499999999999
20
-72.575000000000003
10
306.57499999999999
20
-60.775000000000006
42
-0.41421356237309503
10
307.07499999999999
20
-60.275000000000006
10
321.57499999999999
20
-60.274999999999963
42
-0.41421356237309503
10
322.07500000000005
20
-60.775000000000006
10
322.07499999999993
20
-72.575000000000003
42
-0.41421356237309503
10
321.57499999999999
20
-73.075000000000003
10
307.07499999999999
20
-73.075000000000017
42
-0.41421356237309503
0
LWPOLYLINE
5
186
100
AcDbEntity
8
0
100
AcDbPolyline
90
8
70
1
43
0.0
10
302.52499999999998
20
-15.925000000000002
10
288.02499999999998
20
-15.92500000000001
42
-0.41421356237309503
10
287.52499999999998
20
-15.425000000000002
10
287.52499999999998
20
-3.6250000000000004
42
-0.41421356237309503
10
288.02499999999998
20
-3.1250000000000004
10
302.52499999999998
20
-3.1249999999999933
42
-0.41421356237309503
10
303.02499999999998
20
-3.6250000000000004
10
303.02499999999998
20
-15.425000000000002
42
-0.41421356237309503
0
LWPOLYLINE
5
187
100
AcDbEntity
8
0
100
AcDbPolyline
90
8
70
1
43
0.0
10
345.17500000000007
20
-34.975000000000044
42
-0.41421356237309503
10
344.67500000000001
20
-34.475000000000001
10
344.67500000000007
20
-22.675000000000001
42
-0.41421356237309503
10
345.17500000000007
20
-22.175000000000004
10
359.67500000000001
20
-22.174999999999958
42
-0.41421356237309503
10
360.17500000000007
20
-22.675000000000001
10
360.17499999999995
20
-34.475000000000001
42
-0.41421356237309503
10
359.67500000000001
20
-34.975000000000009
0
LWPOLYLINE
5
188
100
AcDbEntity
8
0
100
AcDbPolyline
90
8
70
1
43
0.0
10
97.525000000000006
20
-15.92500000000001
42
-0.41421356237309503
10
97.025000000000006
20
-15.425000000000002
10
97.025000000000006
20
-3.6250000000000004
42
-0.41421356237309503
10
97.525000000000006
20
-3.125
10
112.02500000000001
20
-3.1249999999999933
42
-0.41421356237309503
10
112.52500000000001
20
-3.6250000000000004
10
112.52500000000001
20
-15.425000000000002
42
-0.41421356237309503
10
112.02500000000001
20
-15.925000000000002
0
LWPOLYLINE
5
189
100
AcDbEntity
8
0
100
AcDbPolyline
90
8
70
1
43
0.0
10
1.7750000000000001
20
-3.6250000000000004
42
-0.41421356237309503
10
2.2750000000000004
20
-3.1250000000000004
10
16.774999999999999
20
-3.125
42
-0.41421356237309503
10
17.274999999999999
20
-3.6250000000000004
10
17.274999999999999
20
-15.425000000000002
42
-0.41421356237309503
10
16.774999999999999
20
-15.925000000000002
10
2.2749999999999999
20
-15.925000000000002
42
-0.41421356237309503
10
1.7749999999999999
20
-15.425000000000002
0
LWPOLYLINE
5
190
100
AcDbEntity
8
0
100
AcDbPolyline
90
8
70
1
43
0.0
10
131.07499999999999
20
-3.1249999999999933
42
-0.41421356237309503
10
131.57500000000002
20
-3.6250000000000004
10
131.57500000000002
20
-15.425000000000002
42
-0.41421356237309503
10
131.07499999999999
20
-15.925000000000002
10
116.575
20
-15.92500000000001
42
-0.41421356237309503
10
116.075
20
-15.425000000000002
10
116.075
20
-3.6250000000000004
42
-0.41421356237309503
10
116.575
20
-3.125
0
LWPOLYLINE
5
191
100
AcDbEntity
8
0
100
AcDbPolyline
90
8
70
1
43
0.0
10
21.537500000000001
20
-111.17500000000001
10
7.0374999999999996
20
-111.17500000000001
42
-0.41421356237309503
10
6.5374999999999996
20
-110.67500000000001
10
6.5374999999999925
20
-98.875000000000014
42
-0.41421356237309503
10
7.0374999999999988
20
-98.375
10
21.537500000000001
20
-98.375000000000028
42
-0.41421356237309503
10
22.037499999999998
20
-98.875000000000014
10
22.037500000000009
20
-110.67500000000001
42
-0.41421356237309503
0
LWPOLYLINE
5
192
100
AcDbEntity
8
0
100
AcDbPolyline
90
8
70
1
43
0.0
10
283.47500000000002
20
-3.125
10
268.97500000000002
20
-3.125
42
0.41421356237309503
10
268.47500000000002
20
-3.6250000000000004
10
268.47500000000002
20
-15.425000000000002
42
0.41421356237309503
10
268.97500000000002
20
-15.925000000000002
10
283.47500000000002
20
-15.925000000000002
42
0.41421356237309503
10
283.97500000000002
20
-15.425000000000002
10
283.97500000000002
20
-3.6250000000000004
42
0.41421356237309503
0
LWPOLYLINE
5
193
100
AcDbEntity
8
0
100
AcDbPolyline
90
8
70
1
43
0.0
10
20.824999999999999
20
-15.425000000000002
10
20.824999999999999
20
-3.6250000000000004
42
-0.41421356237309503
10
21.324999999999999
20
-3.1250000000000004
10
35.825000000000003
20
-3.1250000000000022
42
-0.41421356237309503
10
36.325000000000003
20
-3.6250000000000004
10
36.325000000000003
20
-15.425000000000002
42
-0.41421356237309503
10
35.825000000000003
20
-15.925000000000002
10
21.324999999999999
20
-15.925000000000001
42
-0.41421356237309503
0
LWPOLYLINE
5
194
100
AcDbEntity
8
0
100
AcDbPolyline
90
8
70
1
43
0.0
10
344.67500000000007
20
-91.625
10
344.67500000000007
20
-79.825000000000003
42
-0.41421356237309503
10
345.17500000000007
20
-79.325000000000017
10
359.67500000000001
20
-79.325000000000031
42
-0.41421356237309503
10
360.17499999999995
20
-79.825000000000003
10
360.17499999999995
20
-91.625
42
-0.41421356237309503
10
359.67500000000001
20
-92.125
10
345.17500000000007
20
-92.124999999999972
42
-0.41421356237309503
0
LWPOLYLINE
5
195
100
AcDbEntity
8
0
100
AcDbPolyline
90
8
70
1
43
0.0
10
341.12500000000006
20
-91.625
10
341.12500000000006
20
-79.825000000000003
42
0.41421356237309503
10
340.625
20
-79.325000000000017
10
326.12500000000006
20
-79.325000000000017
42
0.41421356237309503
10
325.62500000000006
20
-79.825000000000003
10
325.62500000000006
20
-91.625
42
0.41421356237309503
10
326.12500000000006
20
-92.125
10
340.625
20
-92.125
42
0.41421356237309503
0
LWPOLYLINE
5
196
100
AcDbEntity
8
0
100
AcDbPolyline
90
8
70
1
43
0.0
10
359.67500000000001
20
-3.125
10
345.17500000000007
20
-3.1250000000000004
42
0.41421356237309503
10
344.67500000000007
20
-3.6250000000000004
10
344.67500000000001
20
-15.425000000000002
42
0.41421356237309503
10
345.17500000000007
20
-15.925000000000002
10
359.67500000000001
20
-15.925000000000002
42
0.41421356237309503
10
360.17500000000007
20
-15.425000000000002
10
360.17500000000007
20
-3.6250000000000004
42
0.41421356237309503
0
LWPOLYLINE
5
197
100
AcDbEntity
8
0
100
AcDbPolyline
90
8
70
1
43
0.0
10
303.02499999999998
20
-110.67500000000001
42
-0.41421356237309503
10
302.52499999999998
20
-111.175
10
288.02499999999998
20
-111.17500000000001
42
-0.41421356237309503
10
287.52499999999998
20
-110.67500000000001
10
287.52499999999998
20
-98.875000000000014
42
-0.41421356237309503
10
288.02499999999998
20
-98.375
10
302.52499999999998
20
-98.375
42
-0.41421356237309503
10
303.02499999999998
20
-98.875000000000014
0
LWPOLYLINE
5
198
100
AcDbEntity
8
0
100
AcDbPolyline
90
8
70
1
43
0.0
10
283.97500000000002
20
-110.67500000000001
42
-0.41421356237309503
10
283.47500000000002
20
-111.17500000000001
10
268.97500000000002
20
-111.17500000000001
42
-0.41421356237309503
10
268.47500000000002
20
-110.67500000000001
10
268.47500000000002
20
-98.875000000000014
42
-0.41421356237309503
10
268.97500000000002
20
-98.375
10
283.47500000000002
20
-98.375
42
-0.41421356237309503
10
283.97500000000002
20
-98.875000000000014
0
LWPOLYLINE
5
199
100
AcDbEntity
8
0
100
AcDbPolyline
90
8
70
1
43
0.0
10
340.625
20
-60.275000000000006
10
326.12500000000006
20
-60.274999999999999
42
0.41421356237309503
10
325.625
20
-60.775000000000006
10
325.625
20
-72.575000000000003
42
0.41421356237309503
10
326.12500000000006
20
-73.075000000000017
10
340.625
20
-73.075000000000003
42
0.41421356237309503
10
341.125
20
-72.575000000000003
10
341.125
20
-60.775000000000006
42
0.41421356237309503
0
LWPOLYLINE
5
200
100
AcDbEntity
8
0
100
AcDbPolyline
90
8
70
1
43
0.0
10
340.625
20
-15.925000000000002
10
326.12500000000006
20
-15.925000000000045
42
-0.41421356237309503
10
325.625
20
-15.425000000000002
10
325.62500000000006
20
-3.6250000000000004
42
-0.41421356237309503
10
326.12500000000006
20
-3.1250000000000004
10
340.625
20
-3.1249999999999578
42
-0.41421356237309503
10
341.12500000000006
20
-3.6250000000000004
10
341.125
20
-15.425000000000002
42
-0.41421356237309503
0
LWPOLYLINE
5
201
100
AcDbEntity
8
0
100
AcDbPolyline
90
8
70
1
43
0.0
10
325.625
20
-110.67500000000001
10
325.625
20
-98.875000000000014
42
-0.41421356237309503
10
326.12500000000006
20
-98.375
10
340.625
20
-98.374999999999972
42
-0.41421356237309503
10
341.12500000000006
20
-98.875000000000014
10
341.125
20
-110.67500000000001
42
-0.41421356237309503
10
340.625
20
-111.17500000000001
10
326.12500000000006
20
-111.17500000000005
42
-0.41421356237309503
0
LWPOLYLINE
5
202
100
AcDbEntity
8
0
100
AcDbPolyline
90
8
70
1
43
0.0
10
359.67500000000001
20
-111.175
10
345.17500000000007
20
-111.17499999999998
42
-0.41421356237309503
10
344.67500000000007
20
-110.67500000000001
10
344.67500000000001
20
-98.875000000000014
42
-0.41421356237309503
10
345.17500000000007
20
-98.375
10
359.67500000000001
20
-98.375000000000043
42
-0.41421356237309503
10
360.17499999999995
20
-98.875000000000014
10
360.17499999999995
20
-110.67500000000001
42
-0.41421356237309503
0
LWPOLYLINE
5
203
100
AcDbEntity
8
0
100
AcDbPolyline
90
8
70
1
43
0.0
10
360.17499999999995
20
-72.575000000000003
42
-0.41421356237309503
10
359.67500000000001
20
-73.075000000000003
10
345.17500000000007
20
-73.075000000000045
42
-0.41421356237309503
10
344.67500000000001
20
-72.575000000000003
10
344.67500000000001
20
-60.775000000000006
42
-0.41421356237309503
10
345.17500000000007
20
-60.274999999999999
10
359.67500000000001
20
-60.275000000000034
42
-0.41421356237309503
10
360.17499999999995
20
-60.775000000000006
0
LWPOLYLINE
5
204
100
AcDbEntity
8
0
100
AcDbPolyline
90
8
70
1
43
0.0
10
183.97500000000002
20
-95.775000000000006
42
-0.41421356237309503
10
184.47500000000002
20
-96.275000000000006
10
184.47500000000002
20
-113.27500000000001
42
-0.41421356237309503
10
183.97500000000002
20
-113.77500000000001
10
177.97499999999999
20
-113.77499999999998
42
-0.41421356237309503
10
177.47500000000002
20
-113.27500000000001
10
177.47499999999999
20
-96.275000000000006
42
-0.41421356237309503
10
177.97499999999999
20
-95.775000000000006
0
LWPOLYLINE
5
205
100
AcDbEntity
8
0
100
AcDbPolyline
90
8
70
1
43
0.0
10
272.75675000000007
20
-58.175000000000011
42
-0.41421356237309503
10
273.25675000000007
20
-57.675000000000011
10
279.25675000000007
20
-57.674999999999997
42
-0.41421356237309503
10
279.75675000000012
20
-58.175000000000011
10
279.75675000000012
20
-75.174999999999997
42
-0.41421356237309503
10
279.25675000000007
20
-75.674999999999997
10
273.25675000000007
20
-75.675000000000011
42
-0.41421356237309503
10
272.75675000000007
20
-75.174999999999997
0
LWPOLYLINE
5
206
100
AcDbEntity
8
0
100
AcDbPolyline
90
8
70
1
43
0.0
10
374.42500000000001
20
-116.77500000000001
10
374.42500000000001
20
2.4750000000000041
42
0.41421356237309215
10
364.42500000000001
20
12.475000000000044
10
-2.4750000000000023
20
12.475000000000001
42
0.41421356237309537
10
-12.475000000000001
20
2.475000000000005
10
-12.474999999999991
20
-116.77500000000002
42
0.41421356237309531
10
-2.4750000000000227
20
-126.77500000000001
10
364.42500000000001
20
-126.77500000000008
42
0.41421356237309293
0
LINE
5
207
100
AcDbEntity
8
0
100
AcDbLine
10
75.020829999999776
20
1.0000000000008229
30
0
11
75.020829999999776
21
0.49999999999999828
31
0
0
ARC
5
208
100
AcDbEntity
8
0
100
AcDbCircle
10
75.520829999999734
20
1.0000000000008229
30
0
40
0.49999999999990802
210
0
220
-0
230
1
100
AcDbArc
50
89.99999999999838
51
180
0
ARC
5
209
100
AcDbEntity
8
0
100
AcDbCircle
10
75.520829999999776
20
0.49999999999999822
30
0
40
0.49999999999999822
210
0
220
0
230
1
100
AcDbArc
50
180
51
270
0
ARC
5
210
100
AcDbEntity
8
0
100
AcDbCircle
10
286.74999999999989
20
-98.750000000000298
30
0
40
0.50000000000000711
210
0
220
-0
230
1
100
AcDbArc
50
0
51
90
0
LWPOLYLINE
5
211
100
AcDbEntity
8
0
100
AcDbPolyline
90
8
70
1
43
0.0
10
2.5250000000000075
20
-54.125000000000021
10
2.5250000000000039
20
-41.125000000000028
42
-0.41421356237309243
10
3.0250000000000066
20
-40.625000000000036
10
4.2624999999999904
20
-40.625000000000036
42
-0.41421356237310347
10
4.7624999999999904
20
-41.125000000000028
10
4.7624999999999948
20
-54.125000000000021
42
-0.41421356237309342
10
4.2624999999999904
20
-54.625000000000028
10
3.0250000000000066
20
-54.625000000000028
42
-0.41421356237309859
0
LINE
5
212
100
AcDbEntity
8
0
100
AcDbLine
10
287.25000000000011
20
-99.250000000000128
30
0
11
287.24999999999989
21
-98.750000000000213
31
0
0
ARC
5
213
100
AcDbEntity
8
0
100
AcDbCircle
10
286.74999999999994
20
-99.250000000000128
30
0
40
0.50000000000016698
210
0
220
0
230
1
100
AcDbArc
50
-90.000000000006523
51
0
0
LWPOLYLINE
5
214
100
AcDbEntity
8
0
100
AcDbPolyline
90
8
70
1
43
0.0
10
26.812500000296641
20
-54.625000000296652
10
25.575000000296654
20
-54.625000000296644
42
-0.41421356237309503
10
25.075000000296654
20
-54.125000000296652
10
25.075000000296651
20
-41.125000000296659
42
-0.41421356237310281
10
25.575000000296654
20
-40.625000000296666
10
26.812500000296641
20
-40.625000000296666
42
-0.41421356237310542
10
27.312500000296644
20
-41.125000000296659
10
27.312500000296648
20
-54.125000000296652
42
-0.41421356237309503
0
ARC
5
215
100
AcDbEntity
8
0
100
AcDbCircle
10
-3.5000000000000164
20
-90.062499999999972
30
0
40
0.50000000000004263
210
-0
220
0
230
1
100
AcDbArc
50
270.00000000000136
51
360
0
LINE
5
216
100
AcDbEntity
8
0
100
AcDbLine
10
-4.0000000000000133
20
-90.562499999999986
30
0
11
-3.5000000000000044
21
-90.562500000000028
31
0
0
ARC
5
217
100
AcDbEntity
8
0
100
AcDbCircle
10
-3.9999999999999982
20
-90.062500000000014
30
0
40
0.49999999999998268
210
0
220
0
230
1
100
AcDbArc
50
180
51
269.99999999999829
0
ARC
5
218
100
AcDbEntity
8
0
100
AcDbCircle
10
-0.99999999999967359
20
-49.700000000000003
30
0
40
0.49999999999999961
210
0
220
0
230
1
100
AcDbArc
50
180
51
270.00000000000091
0
LINE
5
219
100
AcDbEntity
8
0
100
AcDbLine
10
-1.500000000000004
20
1.0000000000000011
30
0
11
-1.4999999999999922
21
-0.49999999999999822
31
0
0
LINE
5
220
100
AcDbEntity
8
0
100
AcDbLine
10
-3.5000000000000044
20
-16.8125
30
0
11
-4.0000000000000115
21
-16.8125
31
0
0
ARC
5
221
100
AcDbEntity
8
0
100
AcDbCircle
10
-4.0000000000000053
20
-17.3125
30
0
40
0.50000000000000044
210
0
220
0
230
1
100
AcDbArc
50
90.000000000000711
51
180
0
ARC
5
222
100
AcDbEntity
8
0
100
AcDbCircle
10
-0.50000000000015765
20
-49.699999999999996
30
0
40
0.49999999999999822
210
0
220
0
230
1
100
AcDbArc
50
-89.999999999999019
51
0
0
LINE
5
223
100
AcDbEntity
8
0
100
AcDbLine
10
-0.99999999999966538
20
-50.200000000000003
30
0
11
-0.50000000000014932
21
-50.199999999999996
31
0
0
ARC
5
224
100
AcDbEntity
8
0
100
AcDbCircle
10
37.233333333333327
20
0.49999999999932832
30
0
40
0.49999999999999206
210
0
220
0
230
1
100
AcDbArc
50
270
51
360
0
ARC
5
225
100
AcDbEntity
8
0
100
AcDbCircle
10
-0.99999999999999589
20
3.5000000000000044
30
0
40
0.49999999999999989
210
0
220
0
230
1
100
AcDbArc
50
180
51
269.99999999999994
0
ARC
5
226
100
AcDbEntity
8
0
100
AcDbCircle
10
-1.0000000000000022
20
4.0000000000000053
30
0
40
0.49999999999999323
210
0
220
-0
230
1
100
AcDbArc
50
89.999999999999332
51
180
0
LINE
5
227
100
AcDbEntity
8
0
100
AcDbLine
10
-1.4999999999999958
20
4.0000000000000044
30
0
11
-1.4999999999999958
21
3.5000000000000018
31
0
0
LINE
5
228
100
AcDbEntity
8
0
100
AcDbLine
10
-0.99999999999999689
20
1.500000000000004
30
0
11
0.50000000000000289
21
1.5000000000000002
31
0
0
ARC
5
229
100
AcDbEntity
8
0
100
AcDbCircle
10
-3.5000000000000071
20
-17.3125
30
0
40
0.49999999999999822
210
-0
220
0
230
1
100
AcDbArc
50
0
51
89.999999999999702
0
ARC
5
230
100
AcDbEntity
8
0
100
AcDbCircle
10
0.49999999999999989
20
-0.50000000000000022
30
0
40
0.49999999999999989
210
0
220
-0
230
1
100
AcDbArc
50
89.999999999999815
51
180
0
ARC
5
231
100
AcDbEntity
8
0
100
AcDbCircle
10
37.233333333333377
20
0.99999999999937195
30
0
40
0.49999999999997158
210
0
220
0
230
1
100
AcDbArc
50
0
51
89.99999999999838
0
ARC
5
232
100
AcDbEntity
8
0
100
AcDbCircle
10
-1.0000000000000011
20
1.0000000000000011
30
0
40
0.50000000000000289
210
0
220
-0
230
1
100
AcDbArc
50
89.999999999999517
51
180
0
LINE
5
233
100
AcDbEntity
8
0
100
AcDbLine
10
37.733333333333348
20
0.99999999999936529
30
0
11
37.733333333333327
21
0.49999999999931705
31
0
0
ARC
5
234
100
AcDbEntity
8
0
100
AcDbCircle
10
163.71249666666668
20
0.99999999999938938
30
0
40
0.50000000000000711
210
0
220
0
230
1
100
AcDbArc
50
0
51
90
0
LINE
5
235
100
AcDbEntity
8
0
100
AcDbLine
10
164.21249666666668
20
0.9999999999993725
30
0
11
164.21249666666668
21
0.49999999999998102
31
0
0
ARC
5
236
100
AcDbEntity
8
0
100
AcDbCircle
10
163.71249666666668
20
0.49999999999999817
30
0
40
0.49999999999999817
210
0
220
0
230
1
100
AcDbArc
50
270
51
360
0
LINE
5
237
100
AcDbEntity
8
0
100
AcDbLine
10
111.91666666666669
20
3.499999999999333
30
0
11
111.9166666666667
21
3.9999999999997549
31
0
0
ARC
5
238
100
AcDbEntity
8
0
100
AcDbCircle
10
111.41666666666664
20
3.4999999999993667
30
0
40
0.50000000000004818
210
-0
220
0
230
1
100
AcDbArc
50
270.00000000000489
51
360
0
ARC
5
239
100
AcDbEntity
8
0
100
AcDbCircle
10
111.41666666666659
20
3.9999999999997766
30
0
40
0.50000000000011369
210
-0
220
0
230
1
100
AcDbArc
50
0
51
89.999999999988603
0
LINE
5
240
100
AcDbEntity
8
0
100
AcDbLine
10
-4.5000000000000062
20
-17.312500000000011
30
0
11
-4.499999999999976
21
-90.062500000000014
31
0
0
LINE
5
241
100
AcDbEntity
8
0
100
AcDbLine
10
-3.0000000000000089
20
-17.3125
30
0
11
-3.0000000000000089
21
-90.062500000000014
31
0
0
LINE
5
242
100
AcDbEntity
8
0
100
AcDbLine
10
-1.4999999999999922
20
-0.49999999999999822
30
0
11
-1.4999999999996008
21
-49.700000000000003
31
0
0
LINE
5
243
100
AcDbEntity
8
0
100
AcDbLine
10
0
20
-0.50000000000000022
30
0
11
0
21
-49.700000000000003
31
0
0
LINE
5
244
100
AcDbEntity
8
0
100
AcDbLine
10
0.50000000000000144
20
-3.4694469519536142e-16
30
0
11
37.233333333333341
21
-3.4694469519536142e-16
31
0
0
LINE
5
245
100
AcDbEntity
8
0
100
AcDbLine
10
0.50000000000000289
20
1.5000000000000002
30
0
11
37.233333333333341
21
1.499999999999905
31
0
0
LINE
5
246
100
AcDbEntity
8
0
100
AcDbLine
10
75.520829999999776
20
0
30
0
11
163.71249666666642
21
0
31
0
0
LINE
5
247
100
AcDbEntity
8
0
100
AcDbLine
10
75.520829999999776
20
1.5000000000000002
30
0
11
163.71249666666642
21
1.5000000000000002
31
0
0
LINE
5
248
100
AcDbEntity
8
0
100
AcDbLine
10
285.36249666666697
20
1.5000000000000002
30
0
11
197.17083000000031
21
1.5000000000000002
31
0
0
LINE
5
249
100
AcDbEntity
8
0
100
AcDbLine
10
285.36249666666697
20
0
30
0
11
197.17083000000031
21
0
31
0
0
ARC
5
250
100
AcDbEntity
8
0
100
AcDbCircle
10
285.36249666666697
20
1.0000000000008229
30
0
40
0.49999999999997158
210
0
220
-0
230
1
100
AcDbArc
50
0
51
90
0
LINE
5
251
100
AcDbEntity
8
0
100
AcDbLine
10
196.67083000000005
20
0.9999999999993725
30
0
11
196.67083000000005
21
0.49999999999998102
31
0
0
ARC
5
252
100
AcDbEntity
8
0
100
AcDbCircle
10
197.17083000000005
20
0.49999999999999817
30
0
40
0.50000000000000711
210
0
220
0
230
1
100
AcDbArc
50
180
51
270
0
LINE
5
253
100
AcDbEntity
8
0
100
AcDbLine
10
285.86249666666697
20
1.0000000000008229
30
0
11
285.86249666666697
21
0.49999999999999828
31
0
0
ARC
5
254
100
AcDbEntity
8
0
100
AcDbCircle
10
285.36249666666697
20
0.49999999999999822
30
0
40
0.49999999999999822
210
0
220
0
230
1
100
AcDbArc
50
-90
51
0
0
ARC
5
255
100
AcDbEntity
8
0
100
AcDbCircle
10
197.17083000000005
20
0.99999999999938938
30
0
40
0.50000000000000655
210
0
220
-0
230
1
100
AcDbArc
50
90
51
180
0
LINE
5
256
100
AcDbEntity
8
0
100
AcDbLine
10
366.4500000000001
20
-17.312500000000011
30
0
11
366.4500000000001
21
-90.062500000000014
31
0
0
ARC
5
257
100
AcDbEntity
8
0
100
AcDbCircle
10
361.4500000000001
20
-0.50000000000000044
30
0
40
0.49999999999997158
210
0
220
-0
230
1
100
AcDbArc
50
0
51
90
0
LINE
5
258
100
AcDbEntity
8
0
100
AcDbLine
10
365.95000000000016
20
-90.562499999999986
30
0
11
365.4500000000001
21
-90.562500000000028
31
0
0
LINE
5
259
100
AcDbEntity
8
0
100
AcDbLine
10
362.9499999999997
20
-50.200000000000003
30
0
11
362.45000000000016
21
-50.199999999999996
31
0
0
ARC
5
260
100
AcDbEntity
8
0
100
AcDbCircle
10
362.9499999999997
20
-49.700000000000003
30
0
40
0.49999999999999822
210
0
220
0
230
1
100
AcDbArc
50
-90
51
0
0
ARC
5
261
100
AcDbEntity
8
0
100
AcDbCircle
10
362.45000000000016
20
-49.699999999999996
30
0
40
0.49999999999997158
210
0
220
0
230
1
100
AcDbArc
50
180
51
270
0
LINE
5
262
100
AcDbEntity
8
0
100
AcDbLine
10
365.4500000000001
20
-16.812500000000004
30
0
11
365.95000000000016
21
-16.812500000000004
31
0
0
LINE
5
263
100
AcDbEntity
8
0
100
AcDbLine
10
364.95000000000005
20
-17.3125
30
0
11
364.95000000000005
21
-90.062500000000014
31
0
0
LINE
5
264
100
AcDbEntity
8
0
100
AcDbLine
10
363.45000000000016
20
1.0000000000000009
30
0
11
363.45000000000005
21
-0.49999999999999822
31
0
0
ARC
5
265
100
AcDbEntity
8
0
100
AcDbCircle
10
362.9500000000001
20
1.0000000000000009
30
0
40
0.50000000000004263
210
0
220
-0
230
1
100
AcDbArc
50
0
51
90
0
ARC
5
266
100
AcDbEntity
8
0
100
AcDbCircle
10
365.4500000000001
20
-90.062499999999972
30
0
40
0.50000000000004263
210
0
220
0
230
1
100
AcDbArc
50
180
51
270
0
LINE
5
267
100
AcDbEntity
8
0
100
AcDbLine
10
361.95000000000005
20
-0.50000000000000044
30
0
11
361.95000000000005
21
-49.700000000000003
31
0
0
ARC
5
268
100
AcDbEntity
8
0
100
AcDbCircle
10
365.4500000000001
20
-17.3125
30
0
40
0.49999999999999822
210
-0
220
0
230
1
100
AcDbArc
50
90
51
180
0
ARC
5
269
100
AcDbEntity
8
0
100
AcDbCircle
10
365.95000000000016
20
-17.3125
30
0
40
0.49999999999997158
210
0
220
0
230
1
100
AcDbArc
50
0
51
90
0
LINE
5
270
100
AcDbEntity
8
0
100
AcDbLine
10
362.9500000000001
20
1.5000000000000036
30
0
11
361.4500000000001
21
1.4999999999999991
31
0
0
LINE
5
271
100
AcDbEntity
8
0
100
AcDbLine
10
363.45000000000005
20
-0.49999999999999822
30
0
11
363.4499999999997
21
-49.700000000000003
31
0
0
ARC
5
272
100
AcDbEntity
8
0
100
AcDbCircle
10
365.95000000000005
20
-90.062500000000014
30
0
40
0.49999999999997158
210
0
220
0
230
1
100
AcDbArc
50
-89.999999999986969
51
0
0
LINE
5
273
100
AcDbEntity
8
0
100
AcDbLine
10
361.4500000000001
20
0
30
0
11
324.7166666666667
21
0
31
0
0
LINE
5
274
100
AcDbEntity
8
0
100
AcDbLine
10
361.4500000000001
20
1.4999999999999991
30
0
11
324.7166666666667
21
1.4999999999999059
31
0
0
LINE
5
275
100
AcDbEntity
8
0
100
AcDbLine
10
324.21666666666675
20
0.99999999999936584
30
0
11
324.21666666666675
21
0.49999999999931655
31
0
0
ARC
5
276
100
AcDbEntity
8
0
100
AcDbCircle
10
324.7166666666667
20
0.9999999999993725
30
0
40
0.49999999999997158
210
0
220
0
230
1
100
AcDbArc
50
90.000000000006523
51
180
0
ARC
5
277
100
AcDbEntity
8
0
100
AcDbCircle
10
324.71666666666681
20
0.49999999999932765
30
0
40
0.50000000000004263
210
0
220
0
230
1
100
AcDbArc
50
180
51
270
0
LINE
5
278
100
AcDbEntity
8
0
100
AcDbLine
10
-0.99999999999999645
20
3.0000000000000044
30
0
11
111.41666666666667
21
3.0000000000000044
31
0
0
LINE
5
279
100
AcDbEntity
8
0
100
AcDbLine
10
-0.99999999999999645
20
4.5000000000000044
30
0
11
111.41666666666667
21
4.5000000000000044
31
0
0
LWPOLYLINE
5
280
100
AcDbEntity
8
0
100
AcDbPolyline
90
8
70
1
43
0.0
10
128.38333000000003
20
3.9999999999997549
42
-0.4142135623730453
10
128.88333000000006
20
4.4999999999998899
10
233.06667000000004
20
4.4999999999998908
42
-0.41421356237302481
10
233.56667000000002
20
3.9999999999997549
10
233.56667000000002
20
3.4999999999993325
42
-0.41421356237303325
10
233.06667000000004
20
2.9999999999993188
10
128.88333000000006
20
2.9999999999993241
42
-0.41421356237304396
10
128.38333000000006
20
3.499999999999333
0
ARC
5
281
100
AcDbEntity
8
0
100
AcDbCircle
10
362.9500000000001
20
4.0000000000000053
30
0
40
0.49999999999997158
210
-0
220
0
230
1
100
AcDbArc
50
0
51
90
0
ARC
5
282
100
AcDbEntity
8
0
100
AcDbCircle
10
250.53333333333342
20
3.4999999999993667
30
0
40
0.50000000000004263
210
0
220
0
230
1
100
AcDbArc
50
180
51
269.99999999999676
0
LINE
5
283
100
AcDbEntity
8
0
100
AcDbLine
10
362.9500000000001
20
3.0000000000000049
30
0
11
250.53333333333342
21
3.0000000000000049
31
0
0
LINE
5
284
100
AcDbEntity
8
0
100
AcDbLine
10
250.03333333333336
20
3.4999999999993325
30
0
11
250.03333333333336
21
3.9999999999997549
31
0
0
LINE
5
285
100
AcDbEntity
8
0
100
AcDbLine
10
363.45000000000005
20
4.0000000000000044
30
0
11
363.45000000000005
21
3.5000000000000018
31
0
0
ARC
5
286
100
AcDbEntity
8
0
100
AcDbCircle
10
362.95000000000005
20
3.5000000000000044
30
0
40
0.49999999999999933
210
0
220
0
230
1
100
AcDbArc
50
270.00000000000648
51
360
0
ARC
5
287
100
AcDbEntity
8
0
100
AcDbCircle
10
250.53333333333347
20
3.9999999999997771
30
0
40
0.50000000000011369
210
0
220
0
230
1
100
AcDbArc
50
90.000000000009777
51
180
0
LINE
5
288
100
AcDbEntity
8
0
100
AcDbLine
10
362.9500000000001
20
4.5000000000000036
30
0
11
250.53333333333342
21
4.5000000000000036
31
0
0
LINE
5
289
100
AcDbEntity
8
0
100
AcDbLine
10
-0.99999999999965894
20
-64.100000000000009
30
0
11
-0.50000000000018474
21
-64.100000000000023
31
0
0
ARC
5
290
100
AcDbEntity
8
0
100
AcDbCircle
10
-0.99999999999965894
20
-64.600000000000009
30
0
40
0.49999999999999822
210
0
220
-0
230
1
100
AcDbArc
50
90
51
180
0
ARC
5
291
100
AcDbEntity
8
0
100
AcDbCircle
10
-0.50000000000018474
20
-64.600000000000023
30
0
40
0.50000000000004263
210
0
220
0
230
1
100
AcDbArc
50
0
51
90
0
LINE
5
292
100
AcDbEntity
8
0
100
AcDbLine
10
0
20
-113.80000000000003
30
0
11
0
21
-64.600000000000009
31
0
0
LINE
5
293
100
AcDbEntity
8
0
100
AcDbLine
10
-1.4999999999999858
20
-113.80000000000003
30
0
11
-1.4999999999996305
21
-64.600000000000009
31
0
0
ARC
5
294
100
AcDbEntity
8
0
100
AcDbCircle
10
0.49999999999997158
20
-113.80000000000003
30
0
40
0.49999999999997158
210
0
220
0
230
1
100
AcDbArc
50
180
51
270
0
LINE
5
295
100
AcDbEntity
8
0
100
AcDbLine
10
-1.4999999999999858
20
-115.30000000000001
30
0
11
-1.4999999999999858
21
-113.80000000000003
31
0
0
ARC
5
296
100
AcDbEntity
8
0
100
AcDbCircle
10
-1.0000000000000142
20
-115.30000000000001
30
0
40
0.49999999999997158
210
0
220
0
230
1
100
AcDbArc
50
180
51
270
0
LINE
5
297
100
AcDbEntity
8
0
100
AcDbLine
10
-1.0000000000000142
20
-115.80000000000001
30
0
11
0.49999999999997158
21
-115.80000000000001
31
0
0
LINE
5
298
100
AcDbEntity
8
0
100
AcDbLine
10
0.49999999999997158
20
-114.30000000000001
30
0
11
37.233333333333363
21
-114.30000000000001
31
0
0
LINE
5
299
100
AcDbEntity
8
0
100
AcDbLine
10
0.49999999999997158
20
-115.80000000000001
30
0
11
37.233333333333363
21
-115.79999999999991
31
0
0
LINE
5
300
100
AcDbEntity
8
0
100
AcDbLine
10
37.733333333333334
20
-115.29999999999937
30
0
11
37.733333333333334
21
-114.79999999999933
31
0
0
ARC
5
301
100
AcDbEntity
8
0
100
AcDbCircle
10
37.233333333333363
20
-115.29999999999939
30
0
40
0.49999999999997158
210
0
220
0
230
1
100
AcDbArc
50
-90
51
0
0
ARC
5
302
100
AcDbEntity
8
0
100
AcDbCircle
10
37.233333333333363
20
-114.79999999999934
30
0
40
0.49999999999997158
210
0
220
-0
230
1
100
AcDbArc
50
0
51
90
0
ARC
5
303
100
AcDbEntity
8
0
100
AcDbCircle
10
-1.0000000000000142
20
-117.80000000000001
30
0
40
0.49999999999998934
210
0
220
-0
230
1
100
AcDbArc
50
90
51
180
0
LINE
5
304
100
AcDbEntity
8
0
100
AcDbLine
10
-1.4999999999999858
20
-118.30000000000001
30
0
11
-1.4999999999999858
21
-117.80000000000001
31
0
0
ARC
5
305
100
AcDbEntity
8
0
100
AcDbCircle
10
-1.0000000000000142
20
-118.30000000000001
30
0
40
0.49999999999997158
210
0
220
0
230
1
100
AcDbArc
50
180
51
270
0
LINE
5
306
100
AcDbEntity
8
0
100
AcDbLine
10
-1.0000000000000142
20
-118.80000000000003
30
0
11
111.41666666666666
21
-118.80000000000003
31
0
0
LINE
5
307
100
AcDbEntity
8
0
100
AcDbLine
10
-1.0000000000000142
20
-117.30000000000003
30
0
11
111.41666666666666
21
-117.30000000000003
31
0
0
LINE
5
308
100
AcDbEntity
8
0
100
AcDbLine
10
75.020829999999776
20
-115.30000000000084
30
0
11
75.020829999999776
21
-114.80000000000001
31
0
0
ARC
5
309
100
AcDbEntity
8
0
100
AcDbCircle
10
75.520829999999791
20
-114.80000000000001
30
0
40
0.49999999999998934
210
0
220
-0
230
1
100
AcDbArc
50
90
51
180
0
ARC
5
310
100
AcDbEntity
8
0
100
AcDbCircle
10
75.520829999999748
20
-115.30000000000084
30
0
40
0.49999999999997158
210
0
220
0
230
1
100
AcDbArc
50
180
51
270
0
LINE
5
311
100
AcDbEntity
8
0
100
AcDbLine
10
75.520829999999791
20
-115.80000000000001
30
0
11
163.71249666666642
21
-115.80000000000001
31
0
0
LINE
5
312
100
AcDbEntity
8
0
100
AcDbLine
10
75.520829999999791
20
-114.30000000000001
30
0
11
163.71249666666642
21
-114.30000000000001
31
0
0
LINE
5
313
100
AcDbEntity
8
0
100
AcDbLine
10
111.9166666666667
20
-117.79999999999933
30
0
11
111.9166666666667
21
-118.29999999999977
31
0
0
ARC
5
314
100
AcDbEntity
8
0
100
AcDbCircle
10
111.41666666666659
20
-118.29999999999978
30
0
40
0.50000000000011369
210
-0
220
0
230
1
100
AcDbArc
50
-89.999999999988603
51
0
0
ARC
5
315
100
AcDbEntity
8
0
100
AcDbCircle
10
111.41666666666666
20
-117.79999999999937
30
0
40
0.50000000000004263
210
-0
220
0
230
1
100
AcDbArc
50
0
51
89.999999999996746
0
LWPOLYLINE
5
316
100
AcDbEntity
8
0
100
AcDbPolyline
90
8
70
1
43
0.0
10
128.38333000000006
20
-118.29999999999977
10
128.38333000000006
20
-117.79999999999933
42
-0.41421356237303258
10
128.88333000000003
20
-117.29999999999933
10
233.06667000000004
20
-117.29999999999933
42
-0.41421356237303258
10
233.56667000000002
20
-117.79999999999933
10
233.56667000000002
20
-118.29999999999976
42
-0.4142135623730222
10
233.06667000000004
20
-118.79999999999988
10
128.88333000000003
20
-118.7999999999999
42
-0.4142135623730222
0
LINE
5
317
100
AcDbEntity
8
0
100
AcDbLine
10
164.21249666666668
20
-115.29999999999939
30
0
11
164.21249666666668
21
-114.80000000000001
31
0
0
ARC
5
318
100
AcDbEntity
8
0
100
AcDbCircle
10
163.71249666666668
20
-114.80000000000001
30
0
40
0.50000000000000711
210
0
220
0
230
1
100
AcDbArc
50
0
51
90
0
ARC
5
319
100
AcDbEntity
8
0
100
AcDbCircle
10
163.71249666666668
20
-115.29999999999941
30
0
40
0.50000000000000711
210
0
220
0
230
1
100
AcDbArc
50
-90
51
0
0
ARC
5
320
100
AcDbEntity
8
0
100
AcDbCircle
10
197.17083000000005
20
-115.29999999999939
30
0
40
0.50000000000000711
210
0
220
0
230
1
100
AcDbArc
50
180
51
270
0
LINE
5
321
100
AcDbEntity
8
0
100
AcDbLine
10
196.67083000000005
20
-115.29999999999937
30
0
11
196.67083000000005
21
-114.79999999999997
31
0
0
ARC
5
322
100
AcDbEntity
8
0
100
AcDbCircle
10
197.17083000000005
20
-114.80000000000001
30
0
40
0.50000000000000711
210
0
220
-0
230
1
100
AcDbArc
50
90
51
180
0
LINE
5
323
100
AcDbEntity
8
0
100
AcDbLine
10
285.36249666666697
20
-114.3
30
0
11
197.17083000000031
21
-114.3
31
0
0
LINE
5
324
100
AcDbEntity
8
0
100
AcDbLine
10
285.36249666666697
20
-115.8
30
0
11
197.17083000000031
21
-115.8
31
0
0
ARC
5
325
100
AcDbEntity
8
0
100
AcDbCircle
10
250.53333333333342
20
-117.79999999999937
30
0
40
0.5000000000000604
210
0
220
0
230
1
100
AcDbArc
50
90.000000000003254
51
180
0
LINE
5
326
100
AcDbEntity
8
0
100
AcDbLine
10
250.03333333333336
20
-117.79999999999933
30
0
11
250.03333333333336
21
-118.29999999999976
31
0
0
ARC
5
327
100
AcDbEntity
8
0
100
AcDbCircle
10
250.53333333333347
20
-118.29999999999977
30
0
40
0.50000000000011369
210
0
220
0
230
1
100
AcDbArc
50
180
51
269.99999999999022
0
LINE
5
328
100
AcDbEntity
8
0
100
AcDbLine
10
362.9500000000001
20
-118.79999999999998
30
0
11
250.53333333333342
21
-118.79999999999998
31
0
0
LINE
5
329
100
AcDbEntity
8
0
100
AcDbLine
10
362.9500000000001
20
-117.30000000000001
30
0
11
250.53333333333342
21
-117.30000000000001
31
0
0
LINE
5
330
100
AcDbEntity
8
0
100
AcDbLine
10
285.86249666666697
20
-115.30000000000084
30
0
11
285.86249666666697
21
-114.80000000000001
31
0
0
ARC
5
331
100
AcDbEntity
8
0
100
AcDbCircle
10
285.36249666666697
20
-115.30000000000084
30
0
40
0.49999999999990052
210
-0
220
0
230
1
100
AcDbArc
50
-90
51
0
0
ARC
5
332
100
AcDbEntity
8
0
100
AcDbCircle
10
285.36249666666697
20
-114.80000000000001
30
0
40
0.50000000000000711
210
0
220
0
230
1
100
AcDbArc
50
0
51
90
0
LINE
5
333
100
AcDbEntity
8
0
100
AcDbLine
10
324.21666666666675
20
-115.29999999999937
30
0
11
324.21666666666675
21
-114.79999999999932
31
0
0
ARC
5
334
100
AcDbEntity
8
0
100
AcDbCircle
10
324.7166666666667
20
-115.29999999999937
30
0
40
0.49999999999997158
210
0
220
0
230
1
100
AcDbArc
50
180
51
269.99999999999346
0
ARC
5
335
100
AcDbEntity
8
0
100
AcDbCircle
10
324.71666666666681
20
-114.79999999999933
30
0
40
0.50000000000000711
210
0
220
-0
230
1
100
AcDbArc
50
90
51
180
0
LINE
5
336
100
AcDbEntity
8
0
100
AcDbLine
10
361.4500000000001
20
-114.3
30
0
11
324.7166666666667
21
-114.3
31
0
0
LINE
5
337
100
AcDbEntity
8
0
100
AcDbLine
10
361.4500000000001
20
-115.8
30
0
11
324.7166666666667
21
-115.79999999999991
31
0
0
ARC
5
338
100
AcDbEntity
8
0
100
AcDbCircle
10
362.95000000000005
20
-117.80000000000001
30
0
40
0.50000000000004263
210
0
220
0
230
1
100
AcDbArc
50
0
51
89.999999999993491
0
LINE
5
339
100
AcDbEntity
8
0
100
AcDbLine
10
363.45000000000005
20
-118.3
30
0
11
363.45000000000005
21
-117.80000000000001
31
0
0
ARC
5
340
100
AcDbEntity
8
0
100
AcDbCircle
10
362.9500000000001
20
-118.3
30
0
40
0.49999999999998934
210
-0
220
0
230
1
100
AcDbArc
50
-90
51
0
0
LINE
5
341
100
AcDbEntity
8
0
100
AcDbLine
10
362.9500000000001
20
-115.8
30
0
11
361.4500000000001
21
-115.8
31
0
0
ARC
5
342
100
AcDbEntity
8
0
100
AcDbCircle
10
362.9500000000001
20
-115.3
30
0
40
0.50000000000000711
210
-0
220
0
230
1
100
AcDbArc
50
-90
51
0
0
LINE
5
343
100
AcDbEntity
8
0
100
AcDbLine
10
363.45000000000016
20
-115.3
30
0
11
363.45000000000005
21
-113.79999999999998
31
0
0
ARC
5
344
100
AcDbEntity
8
0
100
AcDbCircle
10
361.4500000000001
20
-113.79999999999998
30
0
40
0.50000000000000711
210
-0
220
0
230
1
100
AcDbArc
50
-90
51
0
0
LINE
5
345
100
AcDbEntity
8
0
100
AcDbLine
10
361.95000000000005
20
-113.79999999999998
30
0
11
361.95000000000005
21
-64.599999999999994
31
0
0
LINE
5
346
100
AcDbEntity
8
0
100
AcDbLine
10
363.45000000000005
20
-113.79999999999998
30
0
11
363.4499999999997
21
-64.599999999999994
31
0
0
ARC
5
347
100
AcDbEntity
8
0
100
AcDbCircle
10
362.45000000000016
20
-64.599999999999994
30
0
40
0.49999999999999822
210
0
220
-0
230
1
100
AcDbArc
50
90
51
180
0
LINE
5
348
100
AcDbEntity
8
0
100
AcDbLine
10
362.9499999999997
20
-64.099999999999994
30
0
11
362.45000000000016
21
-64.099999999999994
31
0
0
ARC
5
349
100
AcDbEntity
8
0
100
AcDbCircle
10
362.9499999999997
20
-64.599999999999994
30
0
40
0.49999999999997158
210
0
220
0
230
1
100
AcDbArc
50
0
51
90
0
CIRCLE
5
350
100
AcDbEntity
8
0
100
AcDbCircle
10
-4.5963203382912896
20
-118.8963203382913
30
0
40
1.250000000000002
210
0
220
0
230
1
0
CIRCLE
5
351
100
AcDbEntity
8
0
100
AcDbCircle
10
120.14999833333337
20
-118.8963203382913
30
0
40
1.2500000000000056
210
0
220
0
230
1
0
CIRCLE
5
352
100
AcDbEntity
8
0
100
AcDbCircle
10
241.8000016666667
20
-118.8963203382913
30
0
40
1.2500000000000056
210
0
220
0
230
1
0
CIRCLE
5
353
100
AcDbEntity
8
0
100
AcDbCircle
10
366.54632033829131
20
-118.8963203382913
30
0
40
1.2500000000000135
210
0
220
0
230
1
0
CIRCLE
5
354
100
AcDbEntity
8
0
100
AcDbCircle
10
366.54632033815381
20
4.5963203394040466
30
0
40
1.2499999999999909
210
0
220
0
230
1
0
CIRCLE
5
355
100
AcDbEntity
8
0
100
AcDbCircle
10
241.8000016666667
20
4.5963203396289041
30
0
40
1.2499999999999891
210
0
220
0
230
1
0
CIRCLE
5
356
100
AcDbEntity
8
0
100
AcDbCircle
10
120.14999833333337
20
4.5963203398481802
30
0
40
1.2500000000000069
210
0
220
0
230
1
0
CIRCLE
5
357
100
AcDbEntity
8
0
100
AcDbCircle
10
-4.5963203375730091
20
4.5963203400730377
30
0
40
1.25
210
0
220
0
230
1
0
ENDSEC
0
SECTION
2
OBJECTS
0
DICTIONARY
5
C
100
AcDbDictionary
3
ACAD_GROUP
350
D
3
ACAD_MLINESTYLE
350
17
0
DICTIONARY
5
D
100
AcDbDictionary
0
DICTIONARY
5
1A
330
C
100
AcDbDictionary
0
DICTIONARY
5
17
100
AcDbDictionary
0
ENDSEC
0
EOF
